<svg xmlns="http://www.w3.org/2000/svg" xmlns:xlink="http://www.w3.org/1999/xlink" width="114" height="38" viewBox="0 0 114 38">
  <defs>
    <clipPath id="clip-iPhone_12_Pro_Max_1">
      <rect width="114" height="38"/>
    </clipPath>
  </defs>
  <g id="iPhone_12_Pro_Max_1" data-name="iPhone 12 Pro Max – 1" clip-path="url(#clip-iPhone_12_Pro_Max_1)">
    <g id="Group_1" data-name="Group 1" transform="translate(-4 -1)">
      <text id="GK-M" transform="translate(35 30)" fill="#343a40" font-size="30" font-family="Karla-ExtraBold, Karla" font-weight="800"><tspan x="0" y="0">GK-M</tspan></text>
      <g id="surface1" transform="translate(48.055 -63.219)">
        <path id="Path_2" data-name="Path 2" d="M19.758-148.208l.051.007c.011.149.028.3.05.448.076.372.076.372.151.663a4.706,4.706,0,0,0,.619,1.28,1.676,1.676,0,0,1,.2.257.63.63,0,0,1-.559-.2,1.825,1.825,0,0,1-.774-.629c-.073,0-.07-.011-.106.017a6.2,6.2,0,0,0-.048.729c-.025.187-.051.377-.075.568a9.058,9.058,0,0,1-.447,1.621c-.006.039-.011.078-.014.121a8.491,8.491,0,0,1-.294-.828,11.072,11.072,0,0,1-.243-1.425c-.008-.252-.017-.5-.022-.752-.073-.055-.1-.031-.129.042l-.051.008c-.078.137-.249.442-.416.461a.8.8,0,0,1-.364.215c-.07,0-.139-.006-.209-.006.17-.221.333-.464.475-.688.073-.165.148-.329.223-.495.073-.2.073-.2.185-.6a2.614,2.614,0,0,1-.381,1.192l-.243.327c0,.045,0,.086.081.086a2.021,2.021,0,0,0,.786-.794c.031-.084.064-.168.1-.249a3.7,3.7,0,0,1,.434,1.431c.008.028.016.056.025.084a.736.736,0,0,1,.086,0,3.246,3.246,0,0,0,.031-.712.608.608,0,0,1,.078,0,3.852,3.852,0,0,0-.017.672c.017.042.029.053.1.044.008-.011.017-.022.028-.033a3.622,3.622,0,0,1,.442-1.478c.009,0,.009,0,.09.221.042.075.084.151.126.227s.637.751.749.556v-.047a3.149,3.149,0,0,1-.54-.979c-.076-.411-.112-.679-.143-.8a.16.16,0,0,0-.1,0c-.131.3-.389.571-.537.866-.055.179-.112.361-.167.543a2.3,2.3,0,0,1,.522-1.231A2.171,2.171,0,0,0,19.758-148.208Zm-4.507,9.9a1.345,1.345,0,0,1-.917-.61,1.071,1.071,0,0,1-.055-.934c.02-.016.02-.016.075-.028.014.008.029.02.045.031.011.089.023.178.037.271a.858.858,0,0,0,.667.733,3.076,3.076,0,0,0,.549.037,2.474,2.474,0,0,0,1.185-.663,8.14,8.14,0,0,0,1.348-1.667c.159-.067.112.2.108.3a1.29,1.29,0,0,1,.048.324q-.366.473-.727.947a5.411,5.411,0,0,1-.923.859,3.416,3.416,0,0,1-.87.355A5.155,5.155,0,0,1,15.25-138.3Zm5.144-6.466c-.143-.369-.143-.369-.313-.873a.76.76,0,0,0-.236-.131.647.647,0,0,1,.3.131,8.085,8.085,0,0,0,.245.825A.254.254,0,0,0,20.395-144.769Zm-1.314,5.552a5.954,5.954,0,0,1-.621-3.738c.028-.187.059-.372.09-.557a.838.838,0,0,1,.137.347l-.056.024c0,.025.148.537.221.844a10.562,10.562,0,0,1,.1,1.6.078.078,0,0,0,.131-.02c.252-2.815.252-2.815.249-2.9-.017-.02-.017-.02-.084-.047.036-.112.075-.223.115-.336a7.9,7.9,0,0,1,.028,4.138A2.5,2.5,0,0,1,19.081-139.217Zm-.093,2.488a4.37,4.37,0,0,1-.6-1.043,9.6,9.6,0,0,1-.375-1.4c-.022-.168-.045-.333-.064-.5-.059-.059-.05-.048-.095-.059-.023.014-.042.028-.062.042a3.823,3.823,0,0,1-.36.528c-.067.07-.134.14-.2.21a2.363,2.363,0,0,1-2.264.665,2.454,2.454,0,0,1-.346-.159,1.272,1.272,0,0,1-.5-.786,1.293,1.293,0,0,1,.451-1.236.281.281,0,0,1,.042-.015.8.8,0,0,0,.587.76,1.661,1.661,0,0,0,1.158-.137,1.157,1.157,0,0,0,.606-.8v-.235c-.062-.053-.056-.048-.109-.048-.1.048-.2.1-.3.148a2.039,2.039,0,0,1-1.6.039c.1.029.209.056.316.084a3.012,3.012,0,0,0,.931-.055,7.367,7.367,0,0,0,2-1.02c.078-.1.056-.355.056-.447.006.215.011.43.02.648a8.337,8.337,0,0,0,.26,1.474,7.46,7.46,0,0,0,.3.729c.059.084.121.168.182.255.011.184.025.368.039.553.033.008.067.02.1.031,0,.022-.045.042-.059.05-.02-.016-.02-.016-.229-.428l-.117.034c.064.62.064.62.14,1.23.047.067.1.036.131-.023a2.091,2.091,0,0,1,.3-.816c0-.148-.092-.07-.129-.076a4.316,4.316,0,0,0,.307-.551c.062-.192.123-.386.187-.575a10.352,10.352,0,0,1-.4,1.988c-.028.067-.131.368-.2.391a4.056,4.056,0,0,1-.28-.375,5.685,5.685,0,0,1-.523-1.689c-.022-.167-.045-.335-.064-.5-.047-.047-.089-.039-.12.006a5.088,5.088,0,0,0,.707,2.426c.075.087.153.176.231.266C19-136.743,19-136.743,18.988-136.729Zm-4.241-4.126a1.468,1.468,0,0,1-.573-.671.944.944,0,0,1,.76-1.25.953.953,0,0,0,.584.934.981.981,0,0,0,.218.047,1.836,1.836,0,0,0,1.568-.777.854.854,0,0,0,.14-.663c-.126-.062-.316.137-.442.193a.667.667,0,0,1-.668-.138.723.723,0,0,1-.148-.8c.062.045.123.092.187.139.439.191.758-.095,1.063-.4a7.311,7.311,0,0,0,.517-.71c.025.036.025.036.453,1.031a.154.154,0,0,0-.081-.014c-.014.02-.028.039-.042.062a4.525,4.525,0,0,1-.827,1.49,4.443,4.443,0,0,1-.559.461c-.07.036-.319.129-.137.218a10.808,10.808,0,0,0,1.16-.716,2.373,2.373,0,0,0,.324-.288,4.762,4.762,0,0,1,.179-1.174c.024.064.053.129.081.2-.056,0-.056.034-.073.084-.064.4-.123.817-.16,1.25-.128-.1-.148.039-.2.139a2.5,2.5,0,0,1-.35.3,5.064,5.064,0,0,1-2.077.864c-.447,0-.733-.023-.973-.372a1.52,1.52,0,0,1-.112-.919c-.006-.037-.011-.073-.017-.107-.02-.008-.02-.008-.073-.008a1.062,1.062,0,0,0,.09,1.421c.064.05.128.1.192.156C14.748-140.867,14.748-140.861,14.748-140.855Zm7.436.213a3.6,3.6,0,0,1-1.691-.571,2.836,2.836,0,0,1-.5-.416c-.008-.171-.014-.341-.02-.512.1-.154.182.106.246.2a2.873,2.873,0,0,0,2.408.83l.2-.075a1.021,1.021,0,0,0,.489-.842,4.245,4.245,0,0,0-.02-.475c.033-.045.025-.045.09-.045a.809.809,0,0,1,.229.911c-.025.064-.05.129-.075.2a2.646,2.646,0,0,1-.291.4A1.637,1.637,0,0,1,22.184-140.643Zm-.008,2.5a4.628,4.628,0,0,1-.484-.109,3.175,3.175,0,0,1-1.21-.833c-.09-.114-.178-.229-.268-.341-.123-.244-.293-.383-.3-.643a6.723,6.723,0,0,0,1.289,1.342,3.4,3.4,0,0,0,.791.355c.123.02.249.042.375.064a1.268,1.268,0,0,0,1.277-.7,1.007,1.007,0,0,0-.02-.853c-.064-.015-.07-.006-.1.036a1.038,1.038,0,0,1-.475.909,1.73,1.73,0,0,1-1.04.061,3.97,3.97,0,0,1-1.124-.794c-.207-.215-.372-.408-.551-.612-.053-.073-.268-.43-.38-.43a1.329,1.329,0,0,0-.1.473.124.124,0,0,0-.023.008,14.82,14.82,0,0,0,.134-1.753c-.014-.221-.025-.442-.036-.663a2.485,2.485,0,0,1-.039-.352,1.74,1.74,0,0,0,.774.945,2.2,2.2,0,0,0,.372.168c.053-.025.047-.064.047-.1a1.379,1.379,0,0,0-.209-.117,5.857,5.857,0,0,1-1-1.588.107.107,0,0,0-.078-.014c-.05.05-.02.122-.014.209a2.932,2.932,0,0,0-.324-.76,5.051,5.051,0,0,1,.157-.7c.075-.4.075-.4.106-.637a3.689,3.689,0,0,0,1.007,1.667c.055.014.1-.009.1-.081a3.7,3.7,0,0,1-.408-.769c.184.366.4.889.917.889a1.27,1.27,0,0,0,.316-.14.688.688,0,0,1-.187.979.8.8,0,0,1-.9-.151.679.679,0,0,0-.078-.006.412.412,0,0,0-.042.036,1.1,1.1,0,0,0,.377.9,1.753,1.753,0,0,0,1.535.475.958.958,0,0,0,.619-.945,1.027,1.027,0,0,1,.559.254,1.021,1.021,0,0,1,.2.956,1.631,1.631,0,0,1-.652.747c-.05.025-.1.051-.151.078a2.02,2.02,0,0,1-1.124.1,4.507,4.507,0,0,1-.456-.148,1.147,1.147,0,0,0-.366-.151c-.084.1-.062.207-.039.346a1.141,1.141,0,0,0,.313.537,1.5,1.5,0,0,0,1.677.235.866.866,0,0,0,.355-.657,1.23,1.23,0,0,1,.505,1.046,1.193,1.193,0,0,1-.671,1.073A2.491,2.491,0,0,1,22.176-138.144Zm-3.959-11.846-.268.445a10.41,10.41,0,0,0-.914,1.381c-.121.28-.238.568-.336.867-.039.2-.067.419-.1.637a3.37,3.37,0,0,1-.724-1.3c-.1-.033-.1-.006-.117.064a3.111,3.111,0,0,0,.461,1.434.146.146,0,0,0,.028.016c-.028.252-.039.5-.045.783-.109-.059-.218-.117-.324-.176a1.327,1.327,0,0,1-.671-1.1c0-.475,0-.475.008-.651a.133.133,0,0,0-.064-.054,3.185,3.185,0,0,1-2.041.414,2.644,2.644,0,0,0,.6-.469,1.937,1.937,0,0,0,1.163-.7,3.242,3.242,0,0,0,.542-.187c.145-.073.825-.428.794-.685-.12-.053-.182.073-.249.138a3.269,3.269,0,0,1-.758.38c-.151.037-.28.056-.321.076a1.769,1.769,0,0,1-.713.567l-.346.084-.176-.042v-.02a2.769,2.769,0,0,0,.475-.531,2.028,2.028,0,0,0,.981-.523l.134-.159a2.186,2.186,0,0,0,1.347-.817.087.087,0,0,0-.031-.07.586.586,0,0,0-.064,0,2.207,2.207,0,0,1-1.2.587.878.878,0,0,0-.235.269c-.022,0-.022,0-.168.134-.148.086-.6.338-.769.254a2.645,2.645,0,0,0,.263-.271,1.881,1.881,0,0,0,1.129-.674,1.043,1.043,0,0,1,.207-.056,2.306,2.306,0,0,0,1.149-.777c0-.084-.067-.082-.106-.076a1.937,1.937,0,0,1-.9.537c-.148.036-.289.055-.311.067a1.56,1.56,0,0,1-1.032.649.714.714,0,0,1-.2-.028c.084-.082.168-.16.254-.238a5.8,5.8,0,0,0,.355-.492c.24-.456.416-.931.606-1.39.266-.564.475-1.034,1.152-1.112a1.88,1.88,0,0,1,1.141.311,1.1,1.1,0,0,1,.344.774A15.184,15.184,0,0,1,18.216-149.989Zm1.586-1.557a1.222,1.222,0,0,1,1.85-1.068,1.837,1.837,0,0,1,.61.76,7.054,7.054,0,0,0,1.161,2.214c.145.123.145.123.145.134-.377.126-.861-.238-1.087-.464-.174-.213-.143-.177-.408-.221a2.247,2.247,0,0,1-.934-.526.094.094,0,0,1-.006-.02c-.2,0-.075.139.006.246a2.894,2.894,0,0,0,1.236.657,2.024,2.024,0,0,0,.725.556,3.553,3.553,0,0,0,.419.123,2.431,2.431,0,0,0,.266.271c-.156.078-.57-.134-.694-.2-.131-.1-.419-.321-.447-.442a.527.527,0,0,0-.179-.033,3.135,3.135,0,0,1-.872-.389c-.1-.092-.229-.29-.288-.108a2.176,2.176,0,0,0,1.347.816,2.151,2.151,0,0,0,.615.52,3.627,3.627,0,0,0,.511.162,2.271,2.271,0,0,0,.487.545c-.047.014-.095.031-.139.047a1.484,1.484,0,0,1-.363-.075,1.632,1.632,0,0,1-.758-.579c-.036-.017-.24-.056-.483-.129a2.045,2.045,0,0,1-.744-.473c-.073,0-.073,0-.095.011,0,.274.548.557.782.685a3.021,3.021,0,0,0,.553.191,1.852,1.852,0,0,0,1.172.69,1.63,1.63,0,0,0,.343.311c.246.153.246.153.246.162a3.105,3.105,0,0,1-2.041-.414c-.045.011-.045.028-.064.053a2.26,2.26,0,0,1-.2,1.323,2.042,2.042,0,0,1-.786.6c0-.137,0-.275,0-.412a1.642,1.642,0,0,1-.042-.368,2.924,2.924,0,0,0,.481-1.477c-.061-.083-.089-.053-.131,0a5.24,5.24,0,0,1-.536,1.1,1.134,1.134,0,0,0-.168.156c-.014-.122-.029-.245-.042-.366a6.127,6.127,0,0,0-1.3-2.51C19.533-149.728,19.758-150.786,19.8-151.546Zm5.672-10.325a1.236,1.236,0,0,0-.458-.03c-.02-.377.506-.766.766-.965a2.247,2.247,0,0,1,.517-.266.267.267,0,0,0-.047.162C25.9-162.793,25.763-162.186,25.474-161.871Zm.643.624a.859.859,0,0,0-.377-.509.152.152,0,0,1,0-.031c.182-.347.366-.69.551-1.034l.024-.008a1.468,1.468,0,0,1,.011,1.345A2.533,2.533,0,0,1,26.117-161.247Zm.951.187a1.218,1.218,0,0,0-.557-.232,2.443,2.443,0,0,1,1.468-.612h.243c-.056.033-.053.042-.081.112-.017,0-.017,0-.039-.016C27.755-161.56,27.412-161.311,27.068-161.06Zm.279.791a.989.989,0,0,0-.093-.587,8.063,8.063,0,0,0,.87-.775,1.714,1.714,0,0,1-.548,1.217A2.038,2.038,0,0,1,27.348-160.268Zm.159.839a1.391,1.391,0,0,0-.36-.439,2.575,2.575,0,0,1,.609-.237,3.974,3.974,0,0,1,.981.011c.07.014.492.078.549.161-.09.009-.113.084-.176.07C28.027-159.564,28.027-159.564,27.507-159.429Zm.1.811a2.188,2.188,0,0,0,0-.543c1.476-.554,1.476-.554,1.493-.551A1.82,1.82,0,0,1,27.608-158.619Zm1.948,1.034v-.084c-.757-.045-1.515-.086-2.272-.129a.692.692,0,0,1-.078-.2,1.34,1.34,0,0,0,.223-.232,4.1,4.1,0,0,1,2.24.52c.025.009.05.017.075.029A.285.285,0,0,0,29.556-157.584Zm-1.7.69a2.436,2.436,0,0,1-.492-.076,1.983,1.983,0,0,0-.009-.55c.7-.037,1.432-.014,2.142-.014a4.029,4.029,0,0,1-1.1.559C28.206-156.936,28.038-156.914,27.859-156.894Zm1.4,2.077c-.05-.025-.1-.048-.148-.07a2.828,2.828,0,0,0-1.286-1.734c.075.006.151.011.229.02l.307.182a2.272,2.272,0,0,1,.917,1.6Zm-.548.123a5.908,5.908,0,0,1-1.342-.258c-.2-.076-.861-.363-.861-.523a1.677,1.677,0,0,0,.179-.506c.235.114.235.114,2.186,1.149.064-.02.062-.045.059-.1l-1.945-1.309a2,2,0,0,1,.156-.182,1.836,1.836,0,0,0,.139-.246,1.174,1.174,0,0,1,.269.07,2.379,2.379,0,0,1,1.23,1.208c.07.184.134.4.227.6l.137.073A3.487,3.487,0,0,1,28.709-154.693Zm-1.566,1.378q-.663-.78-1.322-1.56a2.8,2.8,0,0,0,.271-.156c.042-.037.123-.134.177-.134A2.621,2.621,0,0,1,27.143-153.315Zm.129.383a5.231,5.231,0,0,1-.788-.221,1.681,1.681,0,0,1-.448-.246,2.362,2.362,0,0,1-.78-.688c-.131-.218-.148-.2.033-.4.047-.092.1-.184.148-.274a.181.181,0,0,1,.086-.011q.785.8,1.571,1.593a.353.353,0,0,1,.047.006.171.171,0,0,0,.014.112C27.278-152.938,27.278-152.938,27.272-152.932Zm-2.5.883q-.185-.969-.363-1.938a1.2,1.2,0,0,0,.495-.083,2.776,2.776,0,0,1,.2.642A2.447,2.447,0,0,1,24.767-152.049Zm-.076.363a1.629,1.629,0,0,1-.8-.925,3.106,3.106,0,0,1-.26-1.258,3.041,3.041,0,0,0,.316-.187c.053.006.106.014.162.022q.268,1.023.536,2.049l.056.045c-.053.1-.036.126.006.254Zm-1.054,1.174q-.084-1.652-.168-3.3h.02a3.436,3.436,0,0,0,.629,1.844A2.733,2.733,0,0,1,23.638-150.512Zm-.084.179a3.118,3.118,0,0,1-.741-1.585,5.624,5.624,0,0,1,.008-1.149,2.012,2.012,0,0,0,.056-.375.107.107,0,0,0-.117-.047,1.883,1.883,0,0,1-1.507.207l-.218-.109a.082.082,0,0,1,.025-.064c.062-.006.213.014.386.014a1.3,1.3,0,0,0,.718-.438,1.466,1.466,0,0,0,1,.153c.145,1.3.145,1.3.346,3.235.033,0,.07,0,.106.006A.3.3,0,0,0,23.554-150.332ZM12.41-161.926q-.364-.533-.724-1.063c-.064-.047-.042-.064-.045-.117-.025-.039-.045-.05-.037-.075.461.223,1.194.632,1.289,1.227A2.978,2.978,0,0,0,12.41-161.926Zm-.643.634c-.064-.078-.128-.156-.192-.232a1.279,1.279,0,0,1-.132-.945c.076-.231.076-.231.143-.4H11.6a8.527,8.527,0,0,0,.551,1.062A.938.938,0,0,0,11.767-161.292Zm-.95.185c-.341-.252-.682-.5-1.023-.749a.137.137,0,0,0-.039.022.226.226,0,0,0-.093-.123,2.436,2.436,0,0,1,1.72.618A1.183,1.183,0,0,0,10.817-161.107Zm-.291.782A1.633,1.633,0,0,1,9.76-161.7c.271.27.554.526.873.794a1.845,1.845,0,0,1-.073.19,1.183,1.183,0,0,0-.015.391Zm-.176.85-1.562-.436-.051.017c-.042-.1-.086-.084-.139-.1a2.654,2.654,0,0,1,2.139.061.142.142,0,0,0,.008.017,1.152,1.152,0,0,0-.358.442Zm-.092.811a1.727,1.727,0,0,1-1.292-.809l-.159-.284a.338.338,0,0,1,.047.005l1.434.545a2.083,2.083,0,0,0,0,.543Zm-1.976.978a.164.164,0,0,0-.112-.053,5.59,5.59,0,0,1,.892-.372,4.814,4.814,0,0,1,1.386-.176c.078.078.16.156.24.235a1.283,1.283,0,0,1-.075.193l-.068.016q-1.119.064-2.236.131Zm1.65.735a3.126,3.126,0,0,1-1.155-.377,3.557,3.557,0,0,1-.36-.249l2.119.008a2.159,2.159,0,0,0-.009.554A3.725,3.725,0,0,1,9.931-156.95Zm-.858,2.209a1.592,1.592,0,0,1-.324-.033c.047-.028.095-.055.143-.081a2.359,2.359,0,0,0,.168-.465,2.711,2.711,0,0,1,.8-1.065c.139-.086.573-.368.752-.335a1.574,1.574,0,0,0,.268.389c.059.047.059.047.056.059h-.031q-.94.616-1.876,1.236a.755.755,0,0,0-.073.061c0,.067-.011.09.1.09.271-.151.271-.151,2.155-1.141a1.2,1.2,0,0,0,.191.52c0,.1-.6.4-.694.445A5.391,5.391,0,0,1,9.073-154.742Zm1.677,1.37c0-.1.008-.187.014-.28a2.685,2.685,0,0,1,.88-1.571,1.216,1.216,0,0,0,.417.291.045.045,0,0,0,0,.017C11.633-154.389,11.188-153.891,10.75-153.372Zm-.129.383c.073-.078.143-.131.129-.235a.136.136,0,0,0,.073-.02c.045-.059.444-.456.64-.666l.906-.914a.215.215,0,0,1,.09.011c.075.151.182.321.29.495a2.959,2.959,0,0,1-1.867,1.283C10.795-153.019,10.708-153.006,10.621-152.988Zm2.5.895c-.051-.1-.1-.2-.145-.3a4.156,4.156,0,0,1-.148-.5,1.97,1.97,0,0,1,.168-1.208c.036,0,.036,0,.209.056.1,0,.19.008.288.014C13.364-153.388,13.241-152.742,13.118-152.094Zm.064.363a.326.326,0,0,0,0-.271.08.08,0,0,0,.061-.031q.269-1.023.537-2.047a.841.841,0,0,1,.16-.025,2.76,2.76,0,0,0,.327.191,4.721,4.721,0,0,1-.045.495C14.1-152.893,13.8-151.907,13.182-151.73Zm1.062,1.174a3.126,3.126,0,0,1-.469-1.468,3.394,3.394,0,0,0,.629-1.831h.02C14.259-150.651,14.259-150.651,14.244-150.556Zm.084.176a.188.188,0,0,0-.064-.162c.039,0,.082,0,.123,0,.3-2.861.3-2.861.344-3.223.059,0,.117.014.176.022a1.538,1.538,0,0,0,.819-.179,1.3,1.3,0,0,0,.5.271,4.82,4.82,0,0,0,.511.014l.129.187a1.626,1.626,0,0,1-1.459.051c-.132-.059-.316-.215-.389-.07.064.43.064.43.092.71v.54A3.006,3.006,0,0,1,14.328-150.38Zm13.615,11.119c-.039-.014-.078-.028-.117-.039a.737.737,0,0,0,.146-.252,1.363,1.363,0,0,0,.363.1C28.253-139.27,28.113-139.27,27.943-139.262Zm.439-.363c-.2-.031-.344-.039-.4-.213a.131.131,0,0,0-.109-.039c-.033-.1-.086-.086-.151-.1-.3-.174-.154-.5-.154-.749l-.984-1.4c-.051,0-.1,0-.148,0a.949.949,0,0,1-.766.26c-.061.031-.061.062-.067.134a.448.448,0,0,1-.285.285c-.053.053-.011.086-.031.165-.1.02-.439.09-.456-.037a1.022,1.022,0,0,0,.313-.19v-.064c-.075-.075-.271.017-.358.031-.4,0-.517-.067-.517-.444.148-.414.411-.42.808-.311a.394.394,0,0,0,.4-.2c.075-.338-.188-.624-.344-.864a21.017,21.017,0,0,0-2.34-2.754,1.52,1.52,0,0,0,.168-1.079,2.687,2.687,0,0,1,.4.185c.1.036.209.073.315.112a2.979,2.979,0,0,0,.811,1.124,1.666,1.666,0,0,1-.911-.324c-.076.022-.068.011-.068.1a2.055,2.055,0,0,0,.643.422c.076.017.154.037.232.056a1.863,1.863,0,0,0,.788.551,1.252,1.252,0,0,1-1-.319l-.07.016c-.073.148.361.369.492.442a2.532,2.532,0,0,0,.59.112,4.031,4.031,0,0,0,.531.526,2.017,2.017,0,0,1-.786-.293h-.042c-.031.031-.067.045-.025.112a2.694,2.694,0,0,0,.923.436,5.239,5.239,0,0,0,.584.358v.017a1.674,1.674,0,0,1-.7.008,2.748,2.748,0,0,0-.372-.165c-.039.039-.059.051-.022.123a1.255,1.255,0,0,0,1.2.229l.3.151a1.33,1.33,0,0,0,.853.1,1.513,1.513,0,0,1,.6-.2.98.98,0,0,0,.835-.308.824.824,0,0,1,1.032.093.655.655,0,0,1-.174.575c-.036.182.156.064.248.02-.05.051-.1.1-.148.152-.146.073-.162-.006-.274.008a.761.761,0,0,1-.621.055c-.05-.044-.05-.044-.081-.055a3.114,3.114,0,0,0-1.222.131c-.1.059-.185.1-.123.218a2.421,2.421,0,0,0,.937.081c.246.064.464.223.747.3a.825.825,0,0,1,.581.235.763.763,0,0,1-.3.763c-.145.056-.237.006-.257.16-.086-.02-.125-.042-.154-.092-.02-.118-.042-.1-.125-.112a.218.218,0,0,1-.129-.231,1.547,1.547,0,0,0-.545-.347c-.2-.073-.909-.3-1.037-.129,0,.126.324.42.425.537l.184.243c.037.017.236.056.361.1a.568.568,0,0,1,.344.5c-.109.411-.291.511-.68.581-.042.042-.03.025-.036.1a.721.721,0,0,0,.4.07.219.219,0,0,0,0,.039A.291.291,0,0,0,28.382-139.625Zm1.1-.69a1.259,1.259,0,0,0,.053-.341c.145.023.291-.033.436-.024A.627.627,0,0,1,29.481-140.316Zm.1-.5c-.037-.008-.037-.008-.037-.02a.888.888,0,0,0,.42-.081c0,.017.006.033.008.053A3.458,3.458,0,0,1,29.584-140.819Zm-4.39-.055c-.108-.033-.3-.112-.315-.2a1.233,1.233,0,0,0,.448-.036,1.031,1.031,0,0,0,.29.156A.984.984,0,0,1,25.195-140.875Zm5.228-1.706a.936.936,0,0,0-.156-.19c.05-.059.1-.114.151-.17C30.445-142.88,30.529-142.65,30.423-142.581Zm-20.64,3.263c-.131-.061-.184-.095-.223-.2l.209-.033c.131-.055.131-.055.156-.055a1.074,1.074,0,0,0,.143.249A1.625,1.625,0,0,1,9.782-139.318Zm-.307-.363a.409.409,0,0,1-.011-.056.884.884,0,0,0,.375-.037.024.024,0,0,0,0,.011A1.274,1.274,0,0,1,9.475-139.681Zm.419-.14c-.016-.129-.187-.106-.266-.117a.636.636,0,0,1-.45-.668c.09-.252.174-.3.405-.405.23-.051.252-.028.377-.2.481-.545.5-.553.512-.579-.006-.07-.006-.07-.016-.092-.174-.129-.858.092-1.043.162a4.69,4.69,0,0,0-.473.28c-.061.086-.039.288-.221.288-.075.037-.067.031-.081.123a.416.416,0,0,1-.17.09.649.649,0,0,1,0-.07c-.014-.014-.028-.028-.042-.039a.646.646,0,0,1-.506-.811.987.987,0,0,1,.346-.215c.1-.014.19-.025.289-.036.223-.076.46-.224.7-.289a2.03,2.03,0,0,0,.956-.1c.056-.29-.729-.321-.853-.333H8.848a.66.66,0,0,1-.7,0,.24.24,0,0,0-.173.039.872.872,0,0,1-.3-.24c.022-.006.137.134.26.126a.1.1,0,0,0,.033-.1c-.2-.143-.178-.375-.178-.565a.825.825,0,0,1,1-.137.954.954,0,0,0,.562.321,4.818,4.818,0,0,1,.57.056,1.519,1.519,0,0,0,.7.2,2.053,2.053,0,0,0,.788-.291,1.218,1.218,0,0,0,1.216-.249c.028-.086-.031-.1-.082-.1a1.186,1.186,0,0,1-1.025.143,2.292,2.292,0,0,0,.593-.374,1.921,1.921,0,0,0,.928-.451c0-.182-.154-.045-.221-.006a2.1,2.1,0,0,1-.637.21,6.807,6.807,0,0,0,.548-.537,1.381,1.381,0,0,0,1.085-.481c0-.076-.056-.076-.092-.076a1.3,1.3,0,0,1-.993.319,2.1,2.1,0,0,0,.788-.554,1.758,1.758,0,0,0,.85-.458c.051-.087-.008-.109-.059-.117a1.784,1.784,0,0,1-.9.324,2.669,2.669,0,0,0,.811-1.133,3.784,3.784,0,0,0,.71-.3,1.6,1.6,0,0,0,.171,1.087,25.213,25.213,0,0,0-2.32,2.737c-.207.316-.68.881-.078,1.079.249,0,.433-.139.7-.008a.48.48,0,0,1,.19.6c-.2.271-.54.131-.805.1a.4.4,0,0,0-.039.033c0,.123.185.2.316.257,0,.123-.405.051-.45.042,0-.045,0-.09,0-.134a.531.531,0,0,0-.176-.106.588.588,0,0,1-.165-.328.47.47,0,0,0-.26-.016,1.115,1.115,0,0,1-.549-.268c-.05,0-.1,0-.148,0q-.5.7-.985,1.4c.017.245.126.595-.154.751-.086.014-.112.006-.145.087C9.914-139.907,9.945-139.933,9.894-139.821Zm-1.509-.551a.576.576,0,0,1-.459-.383,1.689,1.689,0,0,0,.431.042.8.8,0,0,0,.053.333Zm-.224-.5c-.078-.02-.156-.039-.235-.056,0-.016.006-.03.009-.045a.83.83,0,0,0,.411.082v.011Zm4.406-.056a.9.9,0,0,1-.285-.086,1.156,1.156,0,0,0,.291-.151,1.336,1.336,0,0,0,.442.033A.5.5,0,0,1,12.567-140.931Zm-5.1-1.705a.423.423,0,0,1,.008-.35h.023c.028.033.112.09.128.165A1.641,1.641,0,0,0,7.462-142.636Zm17.249-6.15c-.062-.084-.123-.168-.182-.249a3.057,3.057,0,0,1-.514-1.453,2.4,2.4,0,0,0,.327-.817c.023-.123.045-.246.068-.366.028.02.059.039.089.061-.02.1-.039.209-.055.316a8.384,8.384,0,0,0,.095,1.7C24.61-149.208,24.61-149.208,24.711-148.786Zm2.225,2.4c-.3-.43-.587-.85-.833-1.272l-.311-.595a10.593,10.593,0,0,1-.595-1.6,10,10,0,0,1-.168-1.13c0-.078.014-.288-.045-.316-.031-.084-.059-.165-.086-.245a3.09,3.09,0,0,0,.487-.951c.033-.176.064-.355.084-.52,0-.117-.006-.235-.009-.352-.067-.338-.067-.338-.059-.341.135.126.135.126.151.151a13.576,13.576,0,0,0,.177,2.628c.125.641.27,1.294.447,1.957.1.324.2.651.3.979,0,.006.1.35.2.162-.139-.439-.139-.439-.215-.707a20.792,20.792,0,0,1-.335-2.628c-.031-.7-.051-1.373-.068-2.041.143.067.289.134.434.2a6.411,6.411,0,0,1,.484,1.974c.061.755.083,1.512.083,2.284-.014.33-.028.66-.039.989-.073.895-.092,1.051-.1,1.227C26.942-146.4,26.942-146.4,26.936-146.391Zm3.131-1.3a2.105,2.105,0,0,1-1.1-.523l-.235-.227a7.18,7.18,0,0,1-.889-1.294c-.081-.165-.159-.327-.237-.489-.017-.213-.033-.425-.05-.635h.011a6.952,6.952,0,0,0,1.316,2.161,3.757,3.757,0,0,0,1.264.888c.05-.033.05-.05.05-.1a7.224,7.224,0,0,1-1.02-1.042c-.173-.26-.173-.26-.341-.54a20.451,20.451,0,0,1-1.314-3.36c.008-.042.016-.084.028-.123.338.663.657,1.324.979,2.021a6.778,6.778,0,0,0,.207.707,4.864,4.864,0,0,0,1.825,2.472A1.4,1.4,0,0,1,30.068-147.688Zm1.509-1.147a.611.611,0,0,0-.083-.143c-.461-.338-.895-.685-1.292-1.031a16.074,16.074,0,0,1-1.247-1.356c-.121-.165-.238-.33-.356-.495a7.759,7.759,0,0,1-1.042-2.128,2.706,2.706,0,0,0-.562-.962,1.725,1.725,0,0,1,.543.236c.036.03.072.064.112.1a50.588,50.588,0,0,1,3.321,4.537h.067a.309.309,0,0,1,.031-.033,3.565,3.565,0,0,0-.411-1.046,40.061,40.061,0,0,0-2.183-3.417c.232,0,.464.006.707-.014a1.909,1.909,0,0,1,.212-.056,7.834,7.834,0,0,0,2.875,1.51c.1.02.886.221.972.123v-.064c-.02-.017-.45-.171-.8-.322a12.646,12.646,0,0,1-2.488-1.529l.57.268a9.165,9.165,0,0,0,2.874,1.54l.442.1a6.659,6.659,0,0,1-1.177.19,6.186,6.186,0,0,1-1.54-.187,8.391,8.391,0,0,1-.788-.3,1.644,1.644,0,0,0-.517-.236c-.039.051-.039.029-.039.117l.4.425a8.106,8.106,0,0,1,.708,1.06,7.459,7.459,0,0,1,.6,1.719c.039.266.076.549.1.848C31.58-149.2,31.577-149.016,31.577-148.834Zm.839-5.9-.38-.034a4.965,4.965,0,0,1-2.514-.964,3.242,3.242,0,0,1-.833-.948l.106-.025a6.98,6.98,0,0,0,2.3,1.063c.512.148.512.148.881.243.016-.014.033-.028.053-.042a.1.1,0,0,0-.02-.078,14.572,14.572,0,0,1-2.793-1.329.029.029,0,0,1-.006-.016c.037,0,.076.006.115.011a8.5,8.5,0,0,1,1.929.12,2.611,2.611,0,0,0,.372.168c.212.112.428.223.643.335a5.459,5.459,0,0,1,1.664,1.4.243.243,0,0,0,.014.042c-.028-.011-.056-.023-.084-.031-.076,0-.3.039-.69.075C32.919-154.744,32.667-154.738,32.416-154.733Zm-2.608-2.544a2.512,2.512,0,0,0,.238-.291c0-.089-.087-.106-.1-.145.36-.031.735-.078,1.107-.129a12.077,12.077,0,0,0,2.192.084A9.857,9.857,0,0,1,29.807-157.277Zm-.391-.716a7.092,7.092,0,0,0-.883-.291c1.521-.313,3.053-.542,4.61-.7a.342.342,0,0,1,.042-.031v-.067a.133.133,0,0,0-.07-.031c-.956.086-1.912.182-2.84.26-1.314.131-1.314.131-1.443.137a2.948,2.948,0,0,0,.553-.716,14.417,14.417,0,0,1,2.052-.156c.112.017.531.037.858.073a5.2,5.2,0,0,1,1.183.43.688.688,0,0,0-.35.148A8.886,8.886,0,0,1,29.416-157.993Zm.112-1.8c0-.019.006-.039.008-.056a4.952,4.952,0,0,0,1.6-.628c.336-.064.671-.134,1.01-.224.2-.073.4-.145.609-.215-.068.067-.134.137-.2.207a3.381,3.381,0,0,1-1.331.727c-.168.036-.335.073-.5.112A10.387,10.387,0,0,1,29.528-159.793Zm-.188-.268a3.105,3.105,0,0,0-1.062-.221q1.841-.864,3.724-1.706c-.017-.039-.031-.075-.045-.112-.039.008-.076.017-.112.028-1.051.386-2.086.775-3.109,1.194-.442.2-.442.2-.444.188a12.142,12.142,0,0,1,1.9-1.308,6.261,6.261,0,0,1,1.347-.269,6.456,6.456,0,0,1,.721.037c-.024.016-.047.033-.069.05a5.174,5.174,0,0,1-.9,1.143l-.361.285a5.393,5.393,0,0,1-1.367.638C29.489-160.1,29.413-160.081,29.341-160.061Zm-.95-1.007c.042-.176.084-.361.109-.518.319-.31.657-.648.954-.972a11.341,11.341,0,0,0,1.372-.85,1.93,1.93,0,0,1,.262-.218,4.411,4.411,0,0,1-1.249,1.471C29.358-161.787,28.877-161.426,28.39-161.068Zm-1.37-.727q1.6-1.463,3.2-2.924a5.975,5.975,0,0,1-1.738,2.731c-.02,0-.037-.02-.2-.055a3.8,3.8,0,0,0-.9.12C27.255-161.881,27.138-161.84,27.02-161.795Zm-.231-.139a4.049,4.049,0,0,0,0-.523c.478-.436.94-.886,1.373-1.367a8.878,8.878,0,0,1,1.408-.942c.162-.076.324-.148.487-.221a1.553,1.553,0,0,1,.338-.109.523.523,0,0,0-.151.291c-.039-.053-.067-.033-.092-.033C29.006-163.911,27.882-162.935,26.789-161.934Zm-.037-.7a2.528,2.528,0,0,0-.282-.66.089.089,0,0,0-.025,0,.056.056,0,0,1,0-.022c.878-.822,1.728-1.7,2.569-2.556a.046.046,0,0,0,0,.02,13.63,13.63,0,0,1-1.194,2.03C27.473-163.408,27.135-163.025,26.752-162.633Zm-15.619-.047c-.4-.406-.4-.406-.621-.649a15.418,15.418,0,0,1-1.054-1.448c-.109-.193-.218-.383-.324-.573a4.045,4.045,0,0,1-.26-.579c.831.855,1.689,1.708,2.572,2.569a.818.818,0,0,0-.129.19C11.256-163.008,11.194-162.846,11.133-162.681Zm-.037.7c-1.062-1-2.175-1.949-3.282-2.846l-.106-.067c-.042.014-.051.014-.068.042a.523.523,0,0,0-.159-.3,6.569,6.569,0,0,1,2.18,1.227c.236.21.476.492.725.752.237.218.475.436.713.657C11.091-162.088,11.091-162.088,11.1-161.982Zm-.235.14c-.064-.029-.126-.056-.187-.082-.352-.1-.939-.282-1.255-.109-.137-.134-.274-.265-.408-.4a7.112,7.112,0,0,1-.716-.937c-.145-.254-.28-.5-.391-.741a5.713,5.713,0,0,1-.232-.66C10.867-161.851,10.867-161.851,10.862-161.842Zm-1.37.718c-.02-.025-.02-.025-.987-.732A7.985,7.985,0,0,1,6.989-163.3a3.045,3.045,0,0,1-.187-.38,8.512,8.512,0,0,0,1.63,1.062c.33.358.33.358.721.758a2.362,2.362,0,0,0,.24.221C9.425-161.47,9.458-161.3,9.492-161.124Zm-.967,1.015a6.688,6.688,0,0,1-1.174-.452c-.129-.082-.254-.16-.381-.238a5.144,5.144,0,0,1-1.051-1.085c-.073-.12-.142-.24-.212-.358-.062-.028-.062-.028-.062-.039a4.979,4.979,0,0,1,1.118.006c.129.022.26.047.392.073.28.076.442.131.544.151a17.826,17.826,0,0,1,1.63,1.088c.26.218.26.218.258.227-1.208-.517-2.441-.99-3.649-1.417-.016.039-.033.081-.047.122,1.239.551,2.5,1.085,3.732,1.7A4.4,4.4,0,0,0,8.524-160.109Zm-.626.26a3.817,3.817,0,0,1-2.756-1.121c.016,0,.184.072.623.221.313.076.643.156.987.223.112.064.223.129.335.2a5.613,5.613,0,0,0,1.27.425.345.345,0,0,0,0,.047Zm.43,1.809c-.215-.025-.43-.048-.643-.07a11.447,11.447,0,0,1-2.536-.671,4.41,4.41,0,0,1-.5-.3l-.246-.059c.328-.148.328-.148.7-.3.134-.039.268-.076.4-.112a7.937,7.937,0,0,1,1.359-.1c.545.031,1.082.081,1.65.162a2.365,2.365,0,0,0,.545.716c-.042.006-.713-.067-3.238-.29-.707-.076-.707-.076-1.07-.1a.3.3,0,0,0-.042.031.605.605,0,0,0,0,.067l.053.033a41.718,41.718,0,0,1,4.6.7c-.308.086-.6.176-.881.285C8.426-158.046,8.377-158.043,8.328-158.04Zm-.794.718a9.556,9.556,0,0,1-2.879-.481c.336.014.7.029,1.062.017.5-.037.5-.037,1.13-.1.568.073.568.073,1.118.129-.089.073-.095.053-.108.146a2.564,2.564,0,0,0,.226.271C7.881-157.322,7.714-157.324,7.535-157.322Zm-2.6,2.545-.428-.033a1.167,1.167,0,0,0-.562-.025c0-.1.3-.4.363-.47.1-.092.2-.184.3-.276a9.5,9.5,0,0,1,1.707-1.057q.169-.076.336-.148c.444-.064.881-.108,1.342-.131a3.979,3.979,0,0,0,.682,0,.047.047,0,0,0,0,.02,15.358,15.358,0,0,1-2.8,1.333c-.016.037-.042.045,0,.1l.078.009a9.444,9.444,0,0,0,3.044-1.228c.084-.084.07-.084.2-.039a5.5,5.5,0,0,1-.654.786,5.844,5.844,0,0,1-.948.64c-.268.115-.522.213-.78.3a8.766,8.766,0,0,1-.987.187C5.531-154.795,5.222-154.781,4.935-154.777ZM6.316-148.9c0-.235,0-.467.011-.7a6.991,6.991,0,0,1,.487-1.976c.148-.316.148-.316.307-.615a9.439,9.439,0,0,1,.711-.993,2.184,2.184,0,0,0,.3-.321c-.025-.106-.064-.1-.126-.09a7.776,7.776,0,0,1-1.026.467,7.148,7.148,0,0,1-1.294.243H5.122a5.912,5.912,0,0,1-1.068-.184c.36-.078.36-.078.62-.151A10.224,10.224,0,0,0,7-154.42c.134-.1.269-.2.4-.3a5.291,5.291,0,0,0,.549-.263.024.024,0,0,0,0,.011,13.493,13.493,0,0,1-2.946,1.714c-.341.117-.341.117-.358.134a.47.47,0,0,0,0,.068c.117.1,1.009-.143,1.208-.191L6.3-153.4a7.6,7.6,0,0,0,2.194-1.292c.1,0,.274.056.425.073.352,0,.491-.011.514-.006a38.431,38.431,0,0,0-2.161,3.346,4.277,4.277,0,0,0-.447,1.109c.006.009.015.02.023.031a.691.691,0,0,1,.081,0c.8-1.172,1.616-2.349,2.463-3.489a7.991,7.991,0,0,1,1.02-1.188,3.057,3.057,0,0,1,.487-.187,2.717,2.717,0,0,0-.514.833,7.5,7.5,0,0,1-.688,1.611,12.561,12.561,0,0,1-1.163,1.636c-.251.28-.251.28-.553.595a18.452,18.452,0,0,1-1.58,1.3A.579.579,0,0,0,6.316-148.9Zm1.359,1.155a1.759,1.759,0,0,1-.341-.084,4.456,4.456,0,0,0,1.554-1.826,4.816,4.816,0,0,0,.475-1.342c.322-.68.643-1.35.979-2.019a.3.3,0,0,1,.031.117,16.713,16.713,0,0,1-1.538,3.73c-.28.383-.28.383-.391.514-.134.131-.268.266-.4.4a3.988,3.988,0,0,0-.341.293c0,.028.009.055.015.084a.738.738,0,0,1,.084.006,4.98,4.98,0,0,0,1.408-1.1c.117-.156.235-.311.355-.464a10.039,10.039,0,0,0,.774-1.474c-.016.213-.033.428-.047.643-.1.2-.207.408-.308.612a3.521,3.521,0,0,1-2,1.882C7.879-147.761,7.775-147.752,7.675-147.744Zm5.5-1.09c.069-.262.069-.262.143-.6a6.144,6.144,0,0,0,.084-2.228c.011-.02.011-.02.089-.061a3.014,3.014,0,0,0,.386,1.179A2.981,2.981,0,0,1,13.174-148.834Zm-2.217,2.377a2.208,2.208,0,0,0,.022-.24c-.078-.624-.1-1.214-.131-1.818a13.091,13.091,0,0,1,.419-4.221c.045-.107.09-.21.134-.313l.439-.21c-.011.434-.023.87-.034,1.306a14.688,14.688,0,0,1-.587,4.056c.014.062.067.082.129.033a19.1,19.1,0,0,0,.673-2.384,19.469,19.469,0,0,0,.3-1.958c.024-.481.039-.947.02-1.412.05-.047.1-.095.156-.143a2.493,2.493,0,0,0,.495,2.164.929.929,0,0,1-.123.285l-.017.436a8.5,8.5,0,0,1-1.23,3.45A10.182,10.182,0,0,1,10.957-146.458Zm5.356-16.811a.709.709,0,0,1-.584-.4l.282.093c-.028.028-.02.028-.02.086a.888.888,0,0,0,.6.1,7.79,7.79,0,0,1,1.706-.3.708.708,0,0,0-.087.156c-.081.009-.182,0-.505.009C17.236-163.472,16.757-163.321,16.313-163.268Zm-.129-.3a2.924,2.924,0,0,0,.419-.106,2.141,2.141,0,0,1,1.678-.42c.067.025.391.162.416.238a1.873,1.873,0,0,0-1.024-.07A11.49,11.49,0,0,1,16.184-163.568Zm3.131.319a1.435,1.435,0,0,0-.962-.139c.033-.338.215-.151.43-.221.193-.115.126-.257.02-.389a1.45,1.45,0,0,0-.758-.319c-.17,0-.329.019-.478.014-.047-.059-.092-.117-.137-.173a2.022,2.022,0,0,0-1.661-.23,1.215,1.215,0,0,1,.168-.833,1.02,1.02,0,0,1,.917-.056,2.048,2.048,0,0,1,.576.372c.436.446.688.726.727.755a2.227,2.227,0,0,1,1.118.774C19.321-163.6,19.472-163.327,19.316-163.249Zm-2.052-2.32a1.6,1.6,0,0,0-.363-.188,1.33,1.33,0,0,1,.931-.648,6.057,6.057,0,0,1,1.829.2,1.817,1.817,0,0,0,1.408-.207.493.493,0,0,1,.011.283,3.64,3.64,0,0,1-1.414.131c-.791-.076-.791-.076-1.5-.16-.489,0-.839.031-.883.584Zm3.618.28a11.566,11.566,0,0,1-2.3-.593c.805.1,1.591.232,2.424.28a1.68,1.68,0,0,0,.559.014c0,.246-.073.215-.3.293C21.132-165.3,21.007-165.292,20.881-165.289Zm-2.4,7.118a.317.317,0,0,0-.025-.022,1.329,1.329,0,0,1,.4-1.347c-.19,0-.12-.459-.112-.551a3.239,3.239,0,0,1,.148-.408,7.483,7.483,0,0,0,.719-1.308c.022-.1.014-.179.122-.179.146.146-.05.623-.122.795a5.809,5.809,0,0,0-.688,1.448c-.011.05-.02.1-.029.154a.123.123,0,0,1,.029-.02c.016.006.086.031.092.092a.129.129,0,0,0-.028.031,7.673,7.673,0,0,0-.42,1.292A.113.113,0,0,1,18.477-158.172Zm-2.033-.427c-.109-.029-.26-.053-.179-.162.031-.011.123-.011.3-.048a2.929,2.929,0,0,0,.942-.858c.33-.461.568-.819.593-.839h.28c.03.031.025.02.033.1a3.834,3.834,0,0,1-1.669,1.77A1.937,1.937,0,0,1,16.444-158.6Zm2.628-.363c-.192-.1-.011-.663.031-.794.047-.115.1-.23.148-.344.6-1.169,1.32-2.334,1.11-3.679-.045-.213-.117-.412-.16-.607a.232.232,0,0,1,.023-.033l.064-.008a2.555,2.555,0,0,1,.336.73,4.726,4.726,0,0,1,.112.512,3.855,3.855,0,0,1-.02.841,7.179,7.179,0,0,1-1.2,2.365,3.2,3.2,0,0,0-.355.794C19.15-159.083,19.17-159.019,19.072-158.963Zm-2.89.086c.5.143,1.154-.7,1.408-1.015.129-.176.258-.352.386-.526-.009-.078-.02-.143-.078-.148,0-.064.086-.036.137-.033a2.08,2.08,0,0,0,1.1-.721,2.531,2.531,0,0,0,.215-1.521.363.363,0,0,0-.313-.209c-.028.025-.053.05-.078.076.017.106.037.212.056.319a1.94,1.94,0,0,1-.738,1.758,5.538,5.538,0,0,0,.439-.6,1.716,1.716,0,0,0-.031-1.745,1.884,1.884,0,0,1,.567.156c.437,0,.3-.4.191-.671a2.392,2.392,0,0,0-1.211-.87,10.076,10.076,0,0,0-.824-.844l-.023-.01v-.023c.082-.059.064-.2.092-.285a.789.789,0,0,1,.389-.131.454.454,0,0,0-.24.324c0,.064-.028.151.09.151.139-.084-.023-.3.237-.276-.059.469.252.693.682.875a.338.338,0,0,1,.054-.036v-.064c-.174-.151-.6-.489-.389-.71.039.008.078.016.12.028.042.254-.064.414.238.548h.12c.059-.09-.014-.221-.033-.282,0-.048,0-.092,0-.137.033-.017.212.061.28.086.02.042-.023.139-.051.184-.092.05-.129.042-.129.146.117.09.439-.087.543-.191a2.367,2.367,0,0,1,.469.148c.3.078.62.162.958.224l.487.033c.033.109.07.221.107.333a6.385,6.385,0,0,1,.112,1.261,14.426,14.426,0,0,0-.107,2.287,1.709,1.709,0,0,1-.073-.772,6.61,6.61,0,0,0-.159-3.008,1.374,1.374,0,0,0-.377-.1c-.059.059-.051.092.024.176a3.855,3.855,0,0,1,.252,1.328c.011.649.006,1.294.056,1.965.006.047.09.721.3.469.016.062.036.123.055.185-.137.028-.151-.051-.251-.051-.017.017-.033.034-.048.051-.05.8-.257,1.789.817,1.968a1.125,1.125,0,0,1-.42.637c-.671,0-.886-.794-1.011-1.284-.087-.075-.109-.008-.131.048-.031.442-.093,1.316-.487,1.627a4.315,4.315,0,0,1-.445-1.787c-.151-.168-.178.243-.2.319a2.4,2.4,0,0,1-1.029,1.258c-.033-.224-.033-.224-.053-.428a4.928,4.928,0,0,1,.151-1.384c-.006-.025-.011-.047-.017-.07-.05-.019-.055-.016-.084-.006-.039.056-.12.215-.206.35C17.872-159.228,15.979-157.829,16.182-158.876Zm3.748.856a.545.545,0,0,0-.042-.037A7.6,7.6,0,0,1,20-159.535c.025-.025.028-.023.084-.029.227.152.045,1.034,0,1.264C20.045-158.18,20.059-158.063,19.93-158.02Zm1.742-.6a2.482,2.482,0,0,1-.307-.07.986.986,0,0,1-.64-.925,7.765,7.765,0,0,1,.145-1.334c.1-.033.1-.033.126-.03a.642.642,0,0,1,.176.249c-.095.615-.319,1.437.314,1.865a2.81,2.81,0,0,0,.335.129C21.879-158.616,21.776-158.624,21.672-158.619Zm-1.482-7.7c-.534-.05-1.082-.165-1.593-.257a2.168,2.168,0,0,0-1.154.1.115.115,0,0,0-.031,0c-.033-.139-.067-.276-.1-.413a18.807,18.807,0,0,0,3.179-.009c-.044.188-.089.375-.131.562Zm-1.545-.662c-.47-.048-.948-.118-1.393-.193-.028-.1-.055-.19-.081-.283.839.034.839.034,1.65.048v-.132a6.771,6.771,0,0,1-.912-.081c0-.09-.016-.176-.016-.243.053-.2.156-.4.223-.607a2.189,2.189,0,0,1,.031-.768.728.728,0,0,1,.478-.145,1.25,1.25,0,0,1,.02-.129.139.139,0,0,1-.068-.248c.151-.009.151-.009.174-.02.014.016.031.033.047.053a.512.512,0,0,1,.073,0c.009-.011.017-.022.029-.033a.68.68,0,0,1,0-.319h.017a1.074,1.074,0,0,1,.022.207c-.02.078-.059.151.073.151a.1.1,0,0,0,.042-.042c.17.006.232-.036.232.17a.243.243,0,0,1-.107.084c0,.042.006.084.009.129a.913.913,0,0,1,.475.131,1.48,1.48,0,0,1,.03.708.986.986,0,0,0,.076.28.925.925,0,0,1,.131.626c0,.011.009.022.014.037-.313.028-.64.053-.931.064v.123a15.765,15.765,0,0,0,1.658-.047,1.022,1.022,0,0,1-.084.291c-.469.084-.925.145-1.378.187C19-166.983,18.821-166.981,18.645-166.977Zm-.179-.624c-.218-.266-.271-.322-.193-.623.081-.171.162-.35.224-.514a.121.121,0,0,1,.086-.023c.037.047.073.1.112.143,0,.336-.36.559-.129.934C18.566-167.616,18.516-167.607,18.466-167.6Zm.822,0a.1.1,0,0,1-.036-.093c.176-.327-.051-.587-.148-.888l-.02-.015a.714.714,0,0,1-.288.039c-.109-.12.055-.139.129-.151a.363.363,0,0,0,.014-.556c-.129-.023-.21-.037-.156-.143.184-.092.438.073.531.26a.48.48,0,0,1-.03.374c.078.126.151.322.235.492.1.332.067.4-.171.674A.371.371,0,0,0,19.287-167.6Zm-1.5-.009c-.231-.045-.464-.086-.7-.128a2.4,2.4,0,0,1-.176-.428,4.059,4.059,0,0,0-.6-.956,1.761,1.761,0,0,1,.7.319,2.324,2.324,0,0,1,.436.6.125.125,0,0,0,.09.022c.073-.073-.017-.2-.042-.254-.034-.168-.056-.363.078-.453.159-.014.391.07.36.3a1.933,1.933,0,0,0-.235.724C17.731-167.78,17.758-167.7,17.786-167.61Zm2.228,0c.025-.072.051-.145.078-.217a1.615,1.615,0,0,0-.206-.705c-.048-.215.033-.274.209-.352a.25.25,0,0,1,.184.025.7.7,0,0,1-.059.618c.082.246.333-.307.336-.31a1.1,1.1,0,0,0,.159-.187,1.556,1.556,0,0,1,.774-.375c-.064.075-.126.151-.187.227a6.191,6.191,0,0,0-.57,1.14C20.378-167.671,20.378-167.671,20.014-167.61Zm-3.877,12.589a6.867,6.867,0,0,1-1.957-.517c-.123-.076-.246-.148-.369-.221-.14-.107-.839-.573-.637-.674a2.6,2.6,0,0,1,.54.252c.383.148.383.148.615.223a5.2,5.2,0,0,0,1.39.224c.039-.015.056-.025.112.02.134.2.269.4.406.6C16.235-155.043,16.2-155.029,16.137-155.021ZM13.2-158.328q-.357-.734-.707-1.465c1.37.042,1.37.042,1.468.053-.129.188-.542.232-.724.268a.959.959,0,0,0-.062.087,1.852,1.852,0,0,1,.037,1.048Zm-1.892-.614-.289-.034c1.227-.738,1.227-.738,1.25-.741-.053.2-.107.391-.156.589A1.373,1.373,0,0,1,11.309-158.943Zm.7-1.2a8.5,8.5,0,0,0-.8-.469.76.76,0,0,1,.738-.009,1.275,1.275,0,0,0,.076.47Zm.459.2a7.5,7.5,0,0,1,.483-1.454h.02a1.954,1.954,0,0,1,.2.755,2.357,2.357,0,0,1-.07.336c-.022.006-.1.081-.266.213A2.859,2.859,0,0,1,12.466-159.95Zm3.7,5.982a1.228,1.228,0,0,1-.313-.122c-.221-.182-.165-.2-.381-.079-.064.023-.129.048-.192.073a1.948,1.948,0,0,1-.971-.073c-.061-.024-.123-.05-.182-.075a1.6,1.6,0,0,0-.31-.187c-.364.086-.822.187-1.068-.137-.053-.117-.1-.232-.153-.346-.09-.037-.078-.146-.143-.187a1.706,1.706,0,0,1-.8-.316,1.69,1.69,0,0,1-.218-.708c-.051-.045-.2-.131-.33-.223a1.271,1.271,0,0,1-.3-1.227c.025-.072.051-.143.076-.213.129-.232.123-.19-.084-.352a2.556,2.556,0,0,1-.215-.319,1.164,1.164,0,0,1,.252-1.185c.3-.215.207-.162.02-.442a.638.638,0,0,1,.43-.959.842.842,0,0,1,.5.064c.078.056.131.126.207.031a.908.908,0,0,1,.718-.85.743.743,0,0,1,.643.229,1.64,1.64,0,0,1,.156,1.024c.056.07.148.05.258.05a.655.655,0,0,1,.545.827c-.16.4-.582.436-.95.458-.009-.047-.017-.095-.023-.142a1.068,1.068,0,0,0,.825-.425c-.006-.028-.008-.053-.011-.078a1.286,1.286,0,0,0-.888-.5l.042-.235a1.64,1.64,0,0,0-.321-1.018c-.263,0-.593.3-.766.483a2.7,2.7,0,0,0-.213.383.9.9,0,0,0-.984.1.774.774,0,0,0,.2.587c.025.019.12.068.139.126a1.422,1.422,0,0,0-.595,1.031c.061.082.478.084.609.093v.011c-.047,0-.095,0-.139,0a1.853,1.853,0,0,0-.033.562,2.71,2.71,0,0,0,.618,1.577c.064.07.131.139.2.209.14.117.951.794,1.133.7.008-.022.008-.022.008-.078a3.351,3.351,0,0,1-1.135-1.579,2.316,2.316,0,0,1,.1-1.47c-.011-.025-.011-.025-.053-.055a.487.487,0,0,1,.07-.037,2.208,2.208,0,0,0,1.07.85c.157-.039.2-.487.213-.593a1.417,1.417,0,0,0,1.381-.579,2.149,2.149,0,0,0,.3-1.246,3.782,3.782,0,0,0-.26-1.035,11.5,11.5,0,0,0-.85-1.417L13.6-163.5c-.193-.227-.381-.428-.565-.62-.2-.174-.87-.795-1.049-.795-.036.037-.03.025-.03.087.2.209.4.405.782.81a16.655,16.655,0,0,1,1.107,1.4c.1.174.21.347.316.52.394.8.85,1.937.252,2.785a1.1,1.1,0,0,1-1.015.307.6.6,0,0,1-.023-.067,1.2,1.2,0,0,0,.993-.412.8.8,0,0,0-.258-1.02,1.343,1.343,0,0,0-.469-.143,1.405,1.405,0,0,0-.246-1.06.834.834,0,0,0-.358-.206,1.4,1.4,0,0,0-.366-.7c-.811-.747-.848-.769-1.538-1.418-.036-.022-.727-.671-.763-.693q-.756-.7-1.5-1.4c-.05-.009-.05-.009-.078,0a.525.525,0,0,0-.257-.289,9.452,9.452,0,0,1,4.048,1.5,8.753,8.753,0,0,1,2.756,3.325,4.116,4.116,0,0,1,.243.993v.354a2.038,2.038,0,0,1-.475,1.141,2.921,2.921,0,0,1-.428.315c-.09.029-.178.056-.266.087-.333,0-.285-.042-.321.265a.832.832,0,0,0,.319.811,4.825,4.825,0,0,0,1.484.484,2.73,2.73,0,0,0,.165.452,1.413,1.413,0,0,0-.087.87,2.526,2.526,0,0,0,.42.791,2.123,2.123,0,0,0,.153,1.037A1.877,1.877,0,0,1,16.165-153.967Zm5.228-2.731a1.261,1.261,0,0,1-.182-.671,1.5,1.5,0,0,0-.17-.336c-.047-.047-.428-.333-.137-.3a1.3,1.3,0,0,0,.467.123c.2.117.17.7.129.936,0,.05.011.184-.037.232A.589.589,0,0,0,21.392-156.7Zm-.047.456a.793.793,0,0,0-.07-.2,6.214,6.214,0,0,1-.651-.925,5.608,5.608,0,0,0-.123-.593.471.471,0,0,1,.1-.165c.022-.059.045-.114.07-.17a.07.07,0,0,1,.022.006,1.037,1.037,0,0,0,.931.288,1.428,1.428,0,0,1,.151,1.157C21.706-156.7,21.524-156.292,21.345-156.243Zm-1.47-.3c-.238-.2-.187-.333-.2-.615a2.752,2.752,0,0,0-.151-.395c-.045-.067-.319-.38-.082-.346.146.131.291.266.436.4a1.519,1.519,0,0,1,.1.545c-.014.061-.1.215-.036.3C19.945-156.572,19.961-156.561,19.875-156.539Zm-.123.324a.519.519,0,0,0-.112-.21,4.107,4.107,0,0,1-.285-.386,1.468,1.468,0,0,1-.084-1.337,1.8,1.8,0,0,0,.646.576c.162,0,.333-.229.469-.274a2.492,2.492,0,0,1-.612,1.624A.045.045,0,0,0,19.752-156.214Zm-3.215-.94a.557.557,0,0,0-.051-.039,1.092,1.092,0,0,1,.431-.956,2.78,2.78,0,0,1,.385-.129c.017.033.033.07.051.106-.126.118-.252.23-.364.355a1.554,1.554,0,0,0-.383.626C16.587-157.17,16.587-157.17,16.537-157.154Zm1.493.54c-.07-.045-.042-.1-.025-.143a2.066,2.066,0,0,1,.1-.61c.053-.1.106-.2.162-.3a1.557,1.557,0,0,1,.618-.215.093.093,0,0,1,.02.1,1.018,1.018,0,0,0-.47.422c-.028.055-.053.112-.078.168C18.306-157.05,18.237-156.648,18.03-156.614Zm.064.355a1.405,1.405,0,0,1-.377-1.3c.137-.117.274-.232.413-.347.023.02.023.02.084.112a1.884,1.884,0,0,0,.887-.3,4.51,4.51,0,0,1-.285,1.085A8.847,8.847,0,0,1,18.094-156.259Zm-.381-2.388c.107-.087.107-.087.129-.092a2.158,2.158,0,0,0,.078.363c.089.614-1.358,1.418-1.708,1.705-.081-.17-.209-.388-.156-.553a2.267,2.267,0,0,1,.2-.88C16.541-158.6,17.247-158.386,17.713-158.647Zm-.562,3.8a1.723,1.723,0,0,1-.465-.137,2.951,2.951,0,0,1,.582-.659l.086.112a1.365,1.365,0,0,0,1.574.037c.07.042.143.086.216.131a1.367,1.367,0,0,0,1.2-.068,5.075,5.075,0,0,1,.506.478,1.722,1.722,0,0,1-1.169-.017c-.09-.053-.115-.1-.19-.1a1.308,1.308,0,0,1-1.245.092c-.084-.053-.17-.129-.246-.121A1.454,1.454,0,0,1,17.152-154.845Zm3.981-.251a1.67,1.67,0,0,0-.36-.369c-.062-.076-.123-.151-.185-.224a1.338,1.338,0,0,1-.218-.953,3.022,3.022,0,0,0,.2-.523c.165.277.406.531.607.822a.493.493,0,0,1-.048.4c0,.068-.011.062.064.1.132-.075.132-.075.154-.078A5.824,5.824,0,0,1,21.132-155.1Zm-3.2-.372c-.187-.03-.514-.1-.573-.284a2,2,0,0,0,.319-.655c.277.33.277.33.475.542.025,0,.07.019.1-.034-.02-.182-.056-.257.02-.385.315-.26.338-.268.743-.607a1.8,1.8,0,0,0,.182.251c.126.1.425.293.425.509-.023.061-.165.3,0,.3a4.087,4.087,0,0,0,.383-.33,1.192,1.192,0,0,0,.174.495c0,.062-.3.143-.341.154a1.37,1.37,0,0,1-.835-.143c-.193-.145-.148-.123-.324,0a1.981,1.981,0,0,1-.5.17C18.1-155.479,18.018-155.474,17.934-155.469ZM16.5-155.1a1.5,1.5,0,0,1-.377-1.393.728.728,0,0,0,.1.009c.321-.187.671-.377.984-.6h.025a1.387,1.387,0,0,1-.112,1.054,7.173,7.173,0,0,1-.6.73A.578.578,0,0,0,16.5-155.1Zm1.6,5.619.114-.126c-.007.46-.007.922.026,1.384a3.273,3.273,0,0,0,.075.327l.311.646c.076.05.121-.006.109-.078a4.838,4.838,0,0,1-.344-.811c-.011-.087-.02-.174-.028-.26q-.009-1.322-.011-2.637a3.318,3.318,0,0,0-.215-1.316c.165,0,.262.377.291.514,0,.126.014.251.022.377.025.025.025.02.086.028.029-.022.029-.022.039-.051.056-.839.056-.839.056-1l-.031-.039a1.8,1.8,0,0,0,.33-.182,1.988,1.988,0,0,0,.377.173v.02l-.031.017c-.011.039-.086,1.624-.092,1.935.023.022.033.028.1.022a.23.23,0,0,1,.028-.045,5.335,5.335,0,0,1,.453-1.895l.089-.009a3.027,3.027,0,0,0-.374,1.2c-.084.985-.029,1.966-.029,2.972a2.953,2.953,0,0,1-.6.945q-.007.578-.011,1.161a4.537,4.537,0,0,0-.224-.672c-.368-.565-.368-.565-.5-.786-.051-.028-.076.006-.1.02A8.978,8.978,0,0,0,18.1-149.477Zm1.954-3.2a1.614,1.614,0,0,1-1-.16c-.227-.165-.2-.151-.408,0a1.367,1.367,0,0,1-1.557-.293,1.032,1.032,0,0,0,.805-.223h.028a1.534,1.534,0,0,0,.78.257h.391a2.3,2.3,0,0,0,.786-.221h.037a.975.975,0,0,0,.649.185l.271-.042C20.732-152.788,20.354-152.841,20.051-152.678Zm.831-.936a1.042,1.042,0,0,0-.2-.21c-.073-.1-.588-.788-.576-.822a2.07,2.07,0,0,0,.917-.1,1.394,1.394,0,0,1,.023.727c-.045.1-.09.2-.132.293C20.892-153.628,20.892-153.628,20.881-153.614Zm-3.8.262-.02-.011a1.265,1.265,0,0,1,.385-.581h.028a1.339,1.339,0,0,0,1.208.064l.244-.143a1.371,1.371,0,0,0,1.364.07c.143,0,.437.416.518.534a1.022,1.022,0,0,1-.967-.148.617.617,0,0,0-.067-.006,2.177,2.177,0,0,1-1.929-.028l-.067-.008a1.112,1.112,0,0,1-.473.251C17.227-153.358,17.152-153.354,17.079-153.352Zm-.048-.336a.692.692,0,0,0-.117-.153,1.461,1.461,0,0,1-.254-.956,2.519,2.519,0,0,0,.436.162,3.9,3.9,0,0,0,.509,0A6.2,6.2,0,0,1,17.031-153.688Zm.951-.319a3.9,3.9,0,0,1-.392-.083,2.687,2.687,0,0,0,.182-.344c.014-.087.029-.174.042-.26a1.269,1.269,0,0,0,.3-.156.313.313,0,0,1,.051.014,1.421,1.421,0,0,0,.712.209,1.4,1.4,0,0,0,.721-.19,2.205,2.205,0,0,1,.277.123.916.916,0,0,0,.229.54,1.233,1.233,0,0,1-1.032-.006c-.254-.16-.176-.176-.4-.025A1.626,1.626,0,0,1,17.982-154.006Zm7.884-6.083a1.51,1.51,0,0,0,.069-.472.76.76,0,0,1,.735-.017v.025C26.4-160.4,26.134-160.246,25.866-160.09Zm.511,1.2a1.083,1.083,0,0,1-.589-.187,4.22,4.22,0,0,1-.148-.6q.62.373,1.241.749Zm-1.685.6a1.68,1.68,0,0,1,.022-1.048.213.213,0,0,0-.072-.092,1.6,1.6,0,0,1-.71-.254.066.066,0,0,1,0-.02c.491-.017.986-.034,1.482-.048Q25.05-159.016,24.692-158.284Zm.719-1.621a1.549,1.549,0,0,1-.607-.358,1.247,1.247,0,0,1,.123-1.077h.023a11.716,11.716,0,0,1,.489,1.434Zm-3.822,4.932c-.117-.087.109-.621.14-.707a1.889,1.889,0,0,1,.453-.009,7.554,7.554,0,0,0,2.066-.483c.145-.073.29-.145.436-.215.053,0,.078.006.075.1-.112.1-.221.2-.329.3a4.358,4.358,0,0,1-1.2.677c-.17.05-.338.1-.505.151C22.348-155.082,21.963-155.018,21.588-154.973Zm-.243,1.23c-.042-.011-.081-.02-.12-.028a2.073,2.073,0,0,0,.1-1.116,3,3,0,0,0,.193-.469,2.5,2.5,0,0,0,.016-.708,1.421,1.421,0,0,0,.487-.8c0-.075.006-.151.011-.226a4.952,4.952,0,0,0,1.443-.476c.324-.276.324-.436.324-.835-.02-.24,0-.26-.218-.238a1.447,1.447,0,0,1-1.085-.844,2.669,2.669,0,0,1-.187-.743,4.779,4.779,0,0,1,1.289-2.989c.257-.293.517-.59.791-.872.3-.271.3-.271.6-.531a10.72,10.72,0,0,1,1.2-.777c.213-.1.428-.2.643-.3.391-.148.391-.148.839-.3a16.726,16.726,0,0,1,1.65-.375.157.157,0,0,1,.03.006c-.1.078-.232.151-.245.291a.089.089,0,0,0-.1.006c-3.615,3.332-3.615,3.332-3.827,3.539a1.255,1.255,0,0,0-.322.66c-.612.187-.634.716-.61,1.283a.777.777,0,0,0-.69,1.206,1.268,1.268,0,0,0,.954.352c-.008.025-.017.05-.025.075a1.136,1.136,0,0,1-.989-.285,2.458,2.458,0,0,1,.028-2.41,10.009,10.009,0,0,1,.637-1.1c.154-.207.307-.411.464-.615.412-.492.85-.945,1.3-1.4a.288.288,0,0,1,.02-.05c-.039-.067-.059-.056-.1-.056-.383.28-.406.308-.663.5-.023.028-.143.126-.61.581-.131.154-.263.311-.391.467a9.094,9.094,0,0,0-1.222,2.033c-.039.131-.076.266-.112.4a1.788,1.788,0,0,0,.912,2.158,2.008,2.008,0,0,0,.708.064c.042.1.047.588.251.588a2.119,2.119,0,0,0,1.034-.842c.023,0,.023,0,.059.031a.513.513,0,0,0-.036.064,2.532,2.532,0,0,1,.168,1.179,3.274,3.274,0,0,1-.188.629,3.877,3.877,0,0,1-.741,1c-.092.078-.185.156-.274.237,0,.067-.011.062.064.1a4.7,4.7,0,0,0,1.138-.788,3.767,3.767,0,0,0,.52-.744,3.358,3.358,0,0,0,.227-.841c.008-.112.008-.112.008-.663-.02-.025-.02-.025-.07-.05a1.469,1.469,0,0,0,.5-.084c.022-.492-.294-.738-.59-1.048a1.484,1.484,0,0,0,.221-.209c.053-.123.162-.411.1-.512a.931.931,0,0,0-.975-.078,1.469,1.469,0,0,0-.9-.864.423.423,0,0,0-.064,0,1.481,1.481,0,0,0-.289,1.244,1.3,1.3,0,0,0-.883.5c0,.366.512.447.805.511a.824.824,0,0,1-.014.146,1.569,1.569,0,0,1-.78-.2.641.641,0,0,1,.047-.959.878.878,0,0,1,.537-.131c.011-.017.025-.033.039-.05a3.281,3.281,0,0,1,.028-.749c.121-.395.361-.506.772-.506a.946.946,0,0,1,.729.881.1.1,0,0,0,.082.022.7.7,0,0,1,1.121.321.876.876,0,0,1-.246.736c0,.03-.011.028.011.075a1.094,1.094,0,0,1,.336,1.487,2.913,2.913,0,0,1-.3.291v.042a1.446,1.446,0,0,1,.2.987,1.092,1.092,0,0,1-.407.676.587.587,0,0,0-.255.174,1.539,1.539,0,0,1-.218.694,1.815,1.815,0,0,1-.819.327.441.441,0,0,0-.076.162c-.1,0-.173.285-.209.369-.235.3-.721.235-1.024.148h-.075a1.751,1.751,0,0,1-1.524.291l-.249-.134a2.669,2.669,0,0,0-.4.35A.866.866,0,0,1,21.345-153.743Zm0,0" transform="translate(-47 236.3)" fill="#343a40" stroke="#fff" stroke-width="0.216" fill-rule="evenodd"/>
      </g>
    </g>
  </g>
</svg>
