<svg xmlns="http://www.w3.org/2000/svg" xmlns:xlink="http://www.w3.org/1999/xlink" width="1010" height="165" viewBox="0 0 1010 165">
  <defs>
    <clipPath id="clip-Web_1920_1">
      <rect width="1010" height="165"/>
    </clipPath>
  </defs>
  <g id="Web_1920_1" data-name="Web 1920 – 1" clip-path="url(#clip-Web_1920_1)">
    <g id="Group_5" data-name="Group 5" transform="translate(-372.945 -202)">
      <g id="surface1" transform="translate(420 138.781)">
        <path id="Path_2" data-name="Path 2" d="M79.73-65.245l.242.035c.055.715.133,1.434.238,2.148.363,1.781.363,1.781.723,3.176A22.555,22.555,0,0,0,83.9-53.749a8.036,8.036,0,0,1,.949,1.23,3.022,3.022,0,0,1-2.68-.965A8.747,8.747,0,0,1,78.457-56.5c-.348,0-.336-.051-.508.082a29.7,29.7,0,0,0-.23,3.5c-.121.9-.242,1.809-.359,2.723a43.411,43.411,0,0,1-2.145,7.77c-.027.188-.055.375-.066.578a40.7,40.7,0,0,1-1.41-3.969,53.068,53.068,0,0,1-1.164-6.832c-.039-1.207-.082-2.414-.105-3.605-.352-.266-.5-.148-.617.2-.082.012-.16.027-.242.039-.375.656-1.191,2.117-2,2.211a3.817,3.817,0,0,1-1.742,1.031c-.336-.012-.668-.027-1-.027.816-1.059,1.594-2.223,2.277-3.3.348-.789.711-1.578,1.07-2.371.348-.977.348-.977.887-2.895a12.529,12.529,0,0,1-1.824,5.711c-.387.52-.777,1.043-1.164,1.566,0,.215-.016.414.387.414a9.686,9.686,0,0,0,3.766-3.8c.148-.4.309-.8.469-1.191a17.716,17.716,0,0,1,2.078,6.859c.039.133.078.27.121.4a3.538,3.538,0,0,1,.414-.016c.336-.426.082-3.48.148-3.414a2.923,2.923,0,0,1,.375-.016,18.462,18.462,0,0,0-.082,3.219c.082.2.137.254.5.211.039-.051.082-.105.133-.16a17.361,17.361,0,0,1,2.117-7.086c.043,0,.043,0,.43,1.059.2.359.4.723.605,1.086.227.309,3.055,3.6,3.59,2.664v-.227a15.094,15.094,0,0,1-2.586-4.691c-.363-1.969-.535-3.254-.684-3.844a.766.766,0,0,0-.5,0c-.629,1.434-1.863,2.734-2.574,4.152-.266.859-.535,1.73-.8,2.6.16-2.547,1.164-3.82,2.5-5.9A10.407,10.407,0,0,0,79.73-65.245Zm-21.6,47.473a6.445,6.445,0,0,1-4.395-2.922,5.132,5.132,0,0,1-.266-4.477c.094-.078.094-.078.359-.133.066.039.137.094.215.148.055.426.109.855.176,1.3a4.111,4.111,0,0,0,3.2,3.512,14.747,14.747,0,0,0,2.629.176c2.156-.281,4.047-1.8,5.68-3.176a39.013,39.013,0,0,0,6.461-7.988c.762-.32.535.938.52,1.449a6.181,6.181,0,0,1,.23,1.555q-1.752,2.268-3.484,4.539a25.934,25.934,0,0,1-4.422,4.117,16.371,16.371,0,0,1-4.168,1.7A24.715,24.715,0,0,1,58.129-17.773ZM82.785-48.765c-.684-1.77-.684-1.77-1.5-4.184a3.642,3.642,0,0,0-1.129-.629,3.1,3.1,0,0,1,1.438.629A38.751,38.751,0,0,0,82.77-49,1.218,1.218,0,0,0,82.785-48.765Zm-6.3,26.609c-3.258-5.211-3.621-12.059-2.977-17.914.133-.9.281-1.781.43-2.668a4.017,4.017,0,0,1,.656,1.664c-.094.039-.187.078-.27.117-.012.121.711,2.574,1.059,4.047a50.624,50.624,0,0,1,.5,7.652.372.372,0,0,0,.629-.094c1.207-13.492,1.207-13.492,1.2-13.883-.082-.094-.082-.094-.4-.227.172-.535.359-1.07.551-1.609,1.566,6.418,2.09,13.348.133,19.832A11.976,11.976,0,0,1,76.488-22.156ZM76.043-10.23a20.947,20.947,0,0,1-2.879-5,46,46,0,0,1-1.8-6.7c-.105-.8-.215-1.594-.309-2.383-.281-.281-.238-.23-.453-.281-.109.066-.2.133-.3.2a18.318,18.318,0,0,1-1.727,2.531c-.32.336-.645.672-.953,1.008-3.242,2.813-6.605,4.285-10.852,3.188a11.769,11.769,0,0,1-1.66-.762,6.1,6.1,0,0,1-2.375-3.766c-.2-2.332.242-4.488,2.16-5.922a1.344,1.344,0,0,1,.2-.07,3.818,3.818,0,0,0,2.813,3.645,7.961,7.961,0,0,0,5.551-.656,5.546,5.546,0,0,0,2.906-3.844v-1.125c-.3-.254-.27-.23-.523-.23-.48.23-.965.469-1.434.711-2.426.91-5.293,1.367-7.664.188.5.137,1,.27,1.516.4a14.437,14.437,0,0,0,4.461-.266A35.306,35.306,0,0,0,72.3-34.253c.375-.473.27-1.7.27-2.145.027,1.031.055,2.063.094,3.105a39.961,39.961,0,0,0,1.246,7.063,35.752,35.752,0,0,0,1.434,3.5c.281.4.578.8.871,1.223.055.883.121,1.766.188,2.652.16.039.32.094.484.148,0,.106-.215.2-.285.238-.094-.078-.094-.078-1.1-2.051l-.562.164c.309,2.973.309,2.973.672,5.894.227.32.469.172.629-.109a10.02,10.02,0,0,1,1.461-3.91c0-.711-.441-.336-.617-.363a20.681,20.681,0,0,0,1.473-2.641c.3-.922.59-1.848.9-2.758a49.614,49.614,0,0,1-1.93,9.527c-.133.32-.629,1.766-.977,1.875a19.423,19.423,0,0,1-1.34-1.8,27.247,27.247,0,0,1-2.508-8.094c-.105-.8-.215-1.606-.309-2.41-.227-.226-.426-.187-.574.027a24.388,24.388,0,0,0,3.391,11.629c.359.418.734.844,1.109,1.273C76.1-10.3,76.1-10.3,76.043-10.23ZM55.719-30.007a7.035,7.035,0,0,1-2.746-3.215c-.617-2.91.574-5.562,3.645-5.992.188,2.117.656,3.457,2.8,4.477a4.7,4.7,0,0,0,1.043.227,8.8,8.8,0,0,0,7.516-3.723,4.093,4.093,0,0,0,.672-3.176c-.6-.3-1.516.656-2.117.926a3.2,3.2,0,0,1-3.2-.66c-.883-1.125-1.418-2.57-.711-3.816.3.215.59.441.9.668,2.105.914,3.633-.453,5.094-1.914a35.04,35.04,0,0,0,2.477-3.4c.121.172.121.172,2.172,4.941a.738.738,0,0,0-.391-.066c-.066.094-.133.188-.2.3A21.687,21.687,0,0,1,68.7-37.3a21.3,21.3,0,0,1-2.68,2.211c-.336.172-1.527.617-.656,1.043a51.808,51.808,0,0,0,5.559-3.43,11.37,11.37,0,0,0,1.555-1.379,22.823,22.823,0,0,1,.859-5.629c.117.309.254.617.387.938-.27,0-.27.164-.348.4-.309,1.93-.59,3.914-.766,5.992-.613-.5-.707.188-.977.668a11.967,11.967,0,0,1-1.676,1.449c-3.016,1.9-6.43,3.777-9.953,4.141-2.145,0-3.512-.109-4.664-1.785a7.286,7.286,0,0,1-.535-4.406c-.027-.176-.055-.348-.082-.512-.094-.039-.094-.039-.348-.039a5.09,5.09,0,0,0,.43,6.809c.309.238.613.5.922.75C55.719-30.062,55.719-30.034,55.719-30.007Zm35.641,1.02a17.271,17.271,0,0,1-8.105-2.734,13.59,13.59,0,0,1-2.414-2c-.039-.82-.066-1.637-.094-2.453.457-.738.871.508,1.18.953,2.816,2.813,7.355,4.715,11.539,3.977.32-.121.641-.238.977-.359,1.676-.992,2.035-2.254,2.344-4.035a20.346,20.346,0,0,0-.094-2.277c.16-.215.121-.215.43-.215,1.355,1.074,1.543,2.586,1.1,4.367-.121.309-.238.617-.359.941a12.686,12.686,0,0,1-1.395,1.914A7.847,7.847,0,0,1,91.359-28.988ZM91.32-17.011A22.151,22.151,0,0,1,89-17.534a15.216,15.216,0,0,1-5.8-3.992c-.43-.547-.855-1.1-1.285-1.633-.59-1.168-1.406-1.836-1.461-3.082a32.223,32.223,0,0,0,6.176,6.43,16.3,16.3,0,0,0,3.793,1.7c.59.094,1.191.2,1.8.309,2.73,0,4.742-.75,6.121-3.363.375-1.383.738-2.84-.094-4.086-.309-.07-.336-.027-.469.172-.215,1.9-.535,3.269-2.277,4.355a8.293,8.293,0,0,1-4.984.293,19.028,19.028,0,0,1-5.387-3.8c-.992-1.031-1.781-1.957-2.641-2.934-.254-.348-1.285-2.062-1.82-2.062a6.369,6.369,0,0,0-.5,2.266.6.6,0,0,0-.109.039,71.031,71.031,0,0,0,.645-8.4c-.066-1.059-.121-2.117-.172-3.176a11.909,11.909,0,0,1-.187-1.687,8.34,8.34,0,0,0,3.711,4.527,10.529,10.529,0,0,0,1.781.8c.254-.121.227-.309.227-.469a6.611,6.611,0,0,0-1-.562C82.758-37.952,81.688-41,80.25-43.5a.512.512,0,0,0-.375-.066c-.238.238-.094.586-.066,1a14.05,14.05,0,0,0-1.555-3.645,24.207,24.207,0,0,1,.754-3.379c.359-1.93.359-1.93.508-3.055a17.683,17.683,0,0,0,4.824,7.988c.266.066.469-.043.469-.391a17.756,17.756,0,0,1-1.957-3.684c.883,1.754,1.914,4.262,4.395,4.262a6.088,6.088,0,0,0,1.516-.672c1.285,1.461.535,3.539-.9,4.691-1.73.855-2.91.2-4.3-.723a3.266,3.266,0,0,0-.375-.027,1.97,1.97,0,0,0-.2.172c-.32,1.664.723,3.1,1.809,4.328a8.4,8.4,0,0,0,7.355,2.277c2.133-.707,2.762-2.477,2.965-4.527a4.923,4.923,0,0,1,2.68,1.219,4.893,4.893,0,0,1,.965,4.582,7.815,7.815,0,0,1-3.125,3.578c-.238.121-.48.242-.723.375a9.681,9.681,0,0,1-5.387.5,21.588,21.588,0,0,1-2.184-.711,5.5,5.5,0,0,0-1.754-.723c-.4.484-.3.992-.187,1.66a5.469,5.469,0,0,0,1.5,2.574,7.172,7.172,0,0,0,8.039,1.125,4.15,4.15,0,0,0,1.7-3.148c1.66.926,2.344,3.082,2.422,5.012-.266,2.453-.965,3.9-3.215,5.145A11.938,11.938,0,0,1,91.32-17.011ZM72.344-73.784l-1.285,2.133a49.891,49.891,0,0,0-4.379,6.617c-.578,1.34-1.141,2.723-1.609,4.156-.187.965-.32,2.008-.469,3.055-1.848-1.781-2.586-3.992-3.469-6.219-.484-.16-.457-.027-.562.309.332,2.266.723,4.879,2.211,6.875a.7.7,0,0,0,.133.078c-.133,1.207-.187,2.414-.215,3.754-.523-.281-1.047-.562-1.555-.844a6.361,6.361,0,0,1-3.215-5.266c0-2.277,0-2.277.039-3.121a.638.638,0,0,0-.309-.258c-3.133,1.477-6.375,2.734-9.781,1.984a12.675,12.675,0,0,0,2.883-2.25,9.281,9.281,0,0,0,5.574-3.336,15.538,15.538,0,0,0,2.6-.9c.7-.348,3.953-2.051,3.8-3.285-.574-.254-.871.352-1.191.66a15.666,15.666,0,0,1-3.633,1.82c-.723.176-1.34.27-1.539.363a8.48,8.48,0,0,1-3.418,2.719c-.562.133-1.109.27-1.66.4-.281-.066-.562-.133-.844-.2v-.094a13.272,13.272,0,0,0,2.277-2.543,9.72,9.72,0,0,0,4.7-2.508l.645-.762c2.063-.375,5.387-1.945,6.457-3.914a.415.415,0,0,0-.148-.336,2.8,2.8,0,0,0-.309-.012,10.579,10.579,0,0,1-5.762,2.813A4.206,4.206,0,0,0,57.191-70.6c-.105.023-.105.023-.8.641-.707.414-2.879,1.621-3.684,1.219a12.687,12.687,0,0,0,1.262-1.3,9.017,9.017,0,0,0,5.41-3.23,5,5,0,0,1,.992-.27c2.117-.828,4.18-1.781,5.508-3.723,0-.4-.32-.391-.508-.363-.832,1.246-2.988,2.105-4.328,2.574-.711.172-1.383.266-1.488.32a7.479,7.479,0,0,1-4.945,3.109,3.422,3.422,0,0,1-.937-.133c.4-.391.8-.766,1.219-1.141a27.815,27.815,0,0,0,1.7-2.359c1.152-2.184,2-4.461,2.906-6.66,1.273-2.7,2.277-4.957,5.52-5.332a9.011,9.011,0,0,1,5.469,1.488c1.152.938,1.406,2.145,1.648,3.711A72.773,72.773,0,0,1,72.344-73.784Zm7.6-7.461c.551-4.672,4.281-7.395,8.867-5.117,1.434.922,2.023,2.047,2.922,3.645,1.582,3.645,2.68,7.555,5.563,10.609.7.59.7.59.7.645-1.809.6-4.125-1.141-5.211-2.223-.832-1.02-.684-.848-1.957-1.059a10.768,10.768,0,0,1-4.477-2.52.452.452,0,0,1-.027-.094c-.965,0-.359.668.027,1.18a13.87,13.87,0,0,0,5.922,3.148,9.7,9.7,0,0,0,3.473,2.664,17.025,17.025,0,0,0,2.008.59,11.647,11.647,0,0,0,1.273,1.3c-.75.375-2.734-.645-3.324-.953-.629-.469-2.008-1.539-2.141-2.117a2.523,2.523,0,0,0-.859-.16,15.026,15.026,0,0,1-4.18-1.863c-.484-.441-1.1-1.391-1.379-.52,1.164,2.023,4.113,3.375,6.457,3.91a10.312,10.312,0,0,0,2.949,2.492A17.383,17.383,0,0,0,99-66.909a10.885,10.885,0,0,0,2.332,2.613c-.226.066-.453.148-.668.227a7.112,7.112,0,0,1-1.742-.359A7.823,7.823,0,0,1,95.285-67.2c-.172-.082-1.152-.27-2.316-.617A9.8,9.8,0,0,1,89.4-70.085c-.348,0-.348,0-.453.055,0,1.313,2.625,2.668,3.75,3.281a14.485,14.485,0,0,0,2.652.914,8.874,8.874,0,0,0,5.617,3.309,7.812,7.812,0,0,0,1.644,1.488c1.18.734,1.18.734,1.18.777-3.227.938-7.02-.672-9.781-1.984-.215.055-.215.133-.309.254.137,2.359.2,4.18-.937,6.34A9.788,9.788,0,0,1,89-52.784c0-.656,0-1.316.016-1.973a7.867,7.867,0,0,1-.2-1.766c1.6-1.836,2-4.867,2.3-7.078-.293-.4-.426-.254-.629,0a25.114,25.114,0,0,1-2.57,5.293,5.431,5.431,0,0,0-.8.75c-.066-.586-.137-1.176-.2-1.754-.965-4.742-3.414-8.332-6.215-12.031C78.656-72.534,79.73-77.6,79.945-81.245Zm27.184-49.485a5.925,5.925,0,0,0-2.2-.144c-.094-1.809,2.425-3.672,3.671-4.625a10.769,10.769,0,0,1,2.477-1.274,1.281,1.281,0,0,0-.227.778C109.168-135.152,108.512-132.241,107.129-130.73Zm3.082,2.989a4.117,4.117,0,0,0-1.809-2.438.728.728,0,0,1-.011-.148c.871-1.661,1.754-3.309,2.64-4.957.039-.012.078-.028.117-.039.821,2.25,1.317,4.14.055,6.445A12.131,12.131,0,0,1,110.211-127.741Zm4.559.9a5.839,5.839,0,0,0-2.668-1.113c1.554-1.86,4.691-2.586,7.035-2.934H120.3c-.266.16-.254.2-.387.535-.082,0-.082,0-.187-.078C118.063-129.241,116.418-128.05,114.77-126.843Zm1.339,3.793a4.742,4.742,0,0,0-.445-2.813,38.643,38.643,0,0,0,4.168-3.714,8.215,8.215,0,0,1-2.625,5.832A9.769,9.769,0,0,1,116.109-123.05Zm.762,4.02a6.666,6.666,0,0,0-1.726-2.106,12.34,12.34,0,0,1,2.918-1.137,19.047,19.047,0,0,1,4.7.055c.336.066,2.359.375,2.629.773-.43.043-.54.4-.844.336C119.363-119.675,119.363-119.675,116.871-119.03Zm.484,3.886a10.489,10.489,0,0,0-.015-2.6c7.074-2.653,7.074-2.653,7.156-2.641C122.848-117.437,120.836-115.441,117.355-115.144Zm9.336,4.957v-.4c-3.628-.215-7.261-.414-10.89-.617a3.318,3.318,0,0,1-.375-.965,6.419,6.419,0,0,0,1.07-1.113,19.643,19.643,0,0,1,10.734,2.492c.122.043.239.082.36.137A1.366,1.366,0,0,0,126.691-110.187Zm-8.132,3.309a11.681,11.681,0,0,1-2.356-.363,9.5,9.5,0,0,0-.043-2.637c3.352-.176,6.863-.067,10.266-.067a19.312,19.312,0,0,1-5.266,2.68C120.223-107.077,119.418-106.972,118.559-106.878Zm6.7,9.957c-.238-.121-.481-.23-.707-.336a13.553,13.553,0,0,0-6.164-8.309c.359.028.722.055,1.1.094.481.281.977.578,1.473.871a10.889,10.889,0,0,1,4.4,7.68Zm-2.625.59a28.32,28.32,0,0,1-6.43-1.234c-.941-.363-4.129-1.742-4.129-2.5a8.036,8.036,0,0,0,.86-2.425c1.125.547,1.125.547,10.476,5.507.309-.094.3-.215.281-.5q-4.664-3.135-9.324-6.273a9.568,9.568,0,0,1,.75-.871,8.8,8.8,0,0,0,.668-1.18,5.626,5.626,0,0,1,1.289.336,11.4,11.4,0,0,1,5.895,5.789c.336.883.64,1.93,1.086,2.867.215.109.425.227.656.348A16.717,16.717,0,0,1,122.633-96.331Zm-7.5,6.605q-3.176-3.738-6.336-7.477a13.413,13.413,0,0,0,1.3-.75c.2-.176.59-.645.848-.645C113.188-96.238,115.238-93.32,115.129-89.726Zm.617,1.836a25.075,25.075,0,0,1-3.777-1.059,8.057,8.057,0,0,1-2.145-1.18,11.323,11.323,0,0,1-3.738-3.3c-.629-1.047-.711-.953.16-1.93.227-.441.469-.883.711-1.312a.866.866,0,0,1,.414-.055q3.762,3.82,7.531,7.637a1.691,1.691,0,0,1,.227.027.821.821,0,0,0,.066.535C115.773-87.917,115.773-87.917,115.746-87.89Zm-12,4.234Q102.857-88.3,102-92.945a5.756,5.756,0,0,0,2.371-.4,13.3,13.3,0,0,1,.949,3.078A11.73,11.73,0,0,1,103.742-83.656Zm-.363,1.738c-2.012-.7-3-2.8-3.82-4.434a14.888,14.888,0,0,1-1.246-6.027,14.6,14.6,0,0,0,1.516-.9c.254.027.508.066.777.105q1.284,4.9,2.571,9.82c.082.07.176.137.269.215-.254.469-.172.605.028,1.219Zm-5.051,5.629q-.4-7.916-.8-15.809h.094a16.467,16.467,0,0,0,3.016,8.84C100.4-80.964,99.895-78.163,98.328-76.288Zm-.4.859a14.945,14.945,0,0,1-3.551-7.6,26.953,26.953,0,0,1,.039-5.508,9.645,9.645,0,0,0,.27-1.8.514.514,0,0,0-.562-.227,9.026,9.026,0,0,1-7.223.992c-.348-.176-.7-.348-1.047-.523a.394.394,0,0,1,.121-.309c.3-.027,1.02.066,1.852.066,1.551-.281,2.223-.977,3.441-2.1a7.028,7.028,0,0,0,4.785.734c.7,6.246.7,6.246,1.66,15.5.16,0,.336.016.508.027A1.441,1.441,0,0,0,97.926-75.429Zm-53.41-55.566q-1.746-2.555-3.469-5.094c-.309-.227-.2-.309-.215-.563-.121-.187-.215-.238-.176-.359,2.211,1.07,5.723,3.027,6.18,5.879A14.268,14.268,0,0,0,44.516-130.995Zm-3.082,3.039c-.309-.375-.613-.75-.922-1.11a6.13,6.13,0,0,1-.633-4.531c.363-1.109.363-1.109.684-1.941h.082a40.871,40.871,0,0,0,2.641,5.09A4.5,4.5,0,0,0,41.434-127.956Zm-4.555.886c-1.633-1.207-3.27-2.4-4.9-3.589a.658.658,0,0,0-.187.1,1.083,1.083,0,0,0-.445-.59,11.676,11.676,0,0,1,8.242,2.961A5.668,5.668,0,0,0,36.879-127.07Zm-1.395,3.75c-2.57-1.566-3.387-3.816-3.672-6.589,1.3,1.3,2.656,2.519,4.184,3.8a8.849,8.849,0,0,1-.348.91,5.672,5.672,0,0,0-.07,1.875Zm-.844,4.075q-3.756-1.044-7.488-2.09l-.242.082c-.2-.457-.414-.4-.668-.485,3.2-1.07,7.074-1.515,10.25.293a.684.684,0,0,0,.039.082,5.519,5.519,0,0,0-1.715,2.118Zm-.441,3.886a8.279,8.279,0,0,1-6.191-3.875c-.254-.453-.508-.91-.762-1.363a1.618,1.618,0,0,1,.227.024l6.875,2.613a9.983,9.983,0,0,0-.016,2.6Zm-9.473,4.688a.784.784,0,0,0-.535-.254,26.79,26.79,0,0,1,4.273-1.781,23.07,23.07,0,0,1,6.645-.844c.375.375.766.75,1.152,1.125a6.152,6.152,0,0,1-.359.926l-.324.078q-5.361.3-10.719.629C24.809-110.749,24.766-110.71,24.727-110.671Zm7.906,3.523a14.983,14.983,0,0,1-5.535-1.808,17.036,17.036,0,0,1-1.727-1.192q5.063.024,10.156.039a10.346,10.346,0,0,0-.043,2.657A17.857,17.857,0,0,1,32.633-107.148ZM28.52-96.562a7.632,7.632,0,0,1-1.555-.16c.227-.133.453-.266.684-.387a11.311,11.311,0,0,0,.8-2.227,12.994,12.994,0,0,1,3.844-5.106c.668-.414,2.746-1.765,3.605-1.6a7.544,7.544,0,0,0,1.285,1.863c.281.227.281.227.27.281h-.148q-4.506,2.953-8.992,5.922a3.617,3.617,0,0,0-.348.293c0,.32-.055.43.457.43,1.3-.723,1.3-.723,10.328-5.469a5.734,5.734,0,0,0,.914,2.492c0,.473-2.895,1.918-3.324,2.133A25.839,25.839,0,0,1,28.52-96.562ZM36.559-90c.012-.457.039-.9.066-1.34a12.868,12.868,0,0,1,4.219-7.531,5.827,5.827,0,0,0,2,1.395.218.218,0,0,0,.023.082C40.793-94.87,38.66-92.488,36.559-90Zm-.617,1.836c.348-.375.684-.629.617-1.125a.652.652,0,0,0,.348-.094c.215-.281,2.129-2.184,3.066-3.191q2.174-2.186,4.344-4.379a1.029,1.029,0,0,1,.43.055c.359.723.871,1.539,1.391,2.371-1.875,3.32-5.4,5.172-8.949,6.148C36.773-88.308,36.355-88.241,35.941-88.159ZM47.906-83.87c-.242-.484-.469-.965-.7-1.449a19.921,19.921,0,0,1-.711-2.4,9.443,9.443,0,0,1,.8-5.789c.172,0,.172,0,1,.27.457.012.91.039,1.379.066C49.086-90.073,48.5-86.98,47.906-83.87Zm.309,1.742a1.564,1.564,0,0,0,0-1.3.385.385,0,0,0,.293-.148q1.289-4.9,2.574-9.809a4.027,4.027,0,0,1,.766-.121,13.218,13.218,0,0,0,1.566.914,22.626,22.626,0,0,1-.215,2.371C52.625-87.7,51.176-82.976,48.215-82.128ZM53.3-76.5c-1.551-2.25-1.9-4.5-2.25-7.035a16.269,16.269,0,0,0,3.016-8.773h.094C53.375-76.956,53.375-76.956,53.3-76.5Zm.4.844a.9.9,0,0,0-.309-.777c.188-.012.391-.023.59-.023,1.434-13.711,1.434-13.711,1.648-15.449.281.023.563.066.844.105a7.369,7.369,0,0,0,3.926-.859,6.248,6.248,0,0,0,2.375,1.3,23.114,23.114,0,0,0,2.449.066c.2.3.4.59.617.9-2.438,1.355-4.516,1.1-6.992.242-.633-.281-1.516-1.031-1.863-.336.309,2.063.309,2.063.441,3.4V-84.5A14.409,14.409,0,0,1,53.707-75.659ZM118.961-22.37c-.188-.066-.375-.133-.563-.187a3.532,3.532,0,0,0,.7-1.207,6.536,6.536,0,0,0,1.738.457C120.449-22.409,119.777-22.409,118.961-22.37Zm2.105-1.742c-.953-.148-1.648-.187-1.929-1.02a.626.626,0,0,0-.524-.187c-.16-.492-.414-.414-.722-.48-1.461-.832-.739-2.4-.739-3.59-1.582-2.254-3.148-4.488-4.714-6.727-.243,0-.485,0-.711.012a4.548,4.548,0,0,1-3.672,1.246c-.293.148-.293.3-.321.645a2.145,2.145,0,0,1-1.367,1.367c-.254.254-.054.414-.148.789-.5.094-2.1.43-2.184-.176a4.9,4.9,0,0,0,1.5-.91v-.309c-.359-.359-1.3.082-1.715.148-1.9,0-2.476-.32-2.476-2.129.707-1.984,1.969-2.012,3.871-1.488a1.887,1.887,0,0,0,1.93-.965c.359-1.621-.9-2.988-1.649-4.141a100.734,100.734,0,0,0-11.215-13.2c1.086-1.687,1-3.309.8-5.172a12.877,12.877,0,0,1,1.93.887c.5.172,1,.348,1.512.535a14.275,14.275,0,0,0,3.887,5.387,7.986,7.986,0,0,1-4.367-1.555c-.363.105-.324.055-.324.48a9.848,9.848,0,0,0,3.082,2.023c.363.082.738.176,1.113.27a8.929,8.929,0,0,0,3.777,2.641c-1.968.348-3.363-.512-4.781-1.527-.121.027-.23.051-.336.078-.348.711,1.731,1.77,2.36,2.117a12.138,12.138,0,0,0,2.828.535,19.323,19.323,0,0,0,2.543,2.52,9.67,9.67,0,0,1-3.766-1.406h-.2c-.149.148-.321.215-.121.535a12.914,12.914,0,0,0,4.422,2.09,25.1,25.1,0,0,0,2.8,1.715v.082a8.025,8.025,0,0,1-3.351.039,13.174,13.174,0,0,0-1.781-.789c-.188.188-.282.242-.106.59,1.606.977,3.723,2.1,5.746,1.1.485.242.965.484,1.449.723a6.375,6.375,0,0,0,4.086.484,7.25,7.25,0,0,1,2.856-.937c1.832-.109,2.6-.066,4-1.477a3.95,3.95,0,0,1,4.945.445,3.139,3.139,0,0,1-.832,2.758c-.172.871.75.309,1.191.094-.238.242-.48.484-.707.727-.7.348-.777-.027-1.312.039a3.646,3.646,0,0,1-2.977.266c-.242-.211-.242-.211-.386-.266-1.985,0-4.1-.133-5.856.629-.457.281-.887.457-.59,1.047,1.137.563,3.16.4,4.489.387,1.179.309,2.222,1.07,3.578,1.422a3.955,3.955,0,0,1,2.785,1.125,3.655,3.655,0,0,1-1.422,3.656c-.7.27-1.137.027-1.231.766-.414-.094-.6-.2-.738-.441-.094-.566-.2-.5-.6-.539a1.047,1.047,0,0,1-.618-1.109,7.413,7.413,0,0,0-2.613-1.664c-.949-.348-4.355-1.418-4.969-.617,0,.605,1.555,2.012,2.036,2.574.293.391.589.777.882,1.164.176.082,1.129.27,1.731.457a2.722,2.722,0,0,1,1.648,2.387c-.523,1.969-1.394,2.449-3.258,2.785-.2.2-.144.121-.171.469a3.457,3.457,0,0,0,1.941.336,1.047,1.047,0,0,0,.012.188A1.392,1.392,0,0,0,121.066-24.113Zm5.266-3.309a6.034,6.034,0,0,0,.254-1.637c.7.109,1.394-.16,2.09-.117A3.007,3.007,0,0,1,126.332-27.421Zm.5-2.414c-.176-.039-.176-.039-.176-.094a4.255,4.255,0,0,0,2.012-.387c.012.082.027.16.039.254A16.581,16.581,0,0,1,126.828-29.835ZM105.789-30.1c-.519-.16-1.445-.535-1.512-.98a5.911,5.911,0,0,0,2.145-.172,4.943,4.943,0,0,0,1.391.75A4.716,4.716,0,0,1,105.789-30.1Zm25.059-8.176a4.487,4.487,0,0,0-.75-.91c.238-.281.48-.547.722-.816C130.953-39.71,131.355-38.609,130.848-38.277ZM31.922-22.64c-.629-.293-.883-.453-1.07-.937.332-.051.668-.106,1-.16.629-.266.629-.266.75-.266a5.146,5.146,0,0,0,.684,1.191A7.788,7.788,0,0,1,31.922-22.64Zm-1.473-1.738a1.96,1.96,0,0,1-.055-.27,4.237,4.237,0,0,0,1.8-.176.113.113,0,0,0,.012.055A6.108,6.108,0,0,1,30.449-24.378Zm2.008-.672c-.078-.617-.9-.508-1.273-.562a3.047,3.047,0,0,1-2.156-3.2c.43-1.207.832-1.445,1.941-1.941,1.1-.242,1.207-.133,1.809-.953,2.3-2.613,2.387-2.652,2.453-2.773-.027-.336-.027-.336-.078-.441-.832-.617-4.113.441-5,.777a22.467,22.467,0,0,0-2.266,1.34c-.293.414-.187,1.379-1.059,1.379-.359.176-.32.148-.387.59a1.992,1.992,0,0,1-.816.43,3.112,3.112,0,0,1,.012-.336c-.066-.066-.133-.133-.2-.187-2.039-.281-2.668-2.156-2.426-3.887a4.731,4.731,0,0,1,1.66-1.031c.457-.066.91-.121,1.383-.172,1.07-.363,2.207-1.074,3.348-1.383,1.246.043,3.324.23,4.582-.469.27-1.391-3.5-1.539-4.086-1.594H27.445a3.165,3.165,0,0,1-3.363,0,1.151,1.151,0,0,0-.828.188,4.178,4.178,0,0,1-1.422-1.152c.105-.027.656.645,1.246.605a.462.462,0,0,0,.16-.5c-.965-.684-.855-1.8-.855-2.707a3.955,3.955,0,0,1,4.781-.656,4.572,4.572,0,0,0,2.7,1.539,23.093,23.093,0,0,1,2.73.27,7.282,7.282,0,0,0,3.34.938,9.841,9.841,0,0,0,3.777-1.395c2.063.816,4.059.148,5.828-1.191.133-.414-.148-.5-.391-.457a5.684,5.684,0,0,1-4.914.684,10.988,10.988,0,0,0,2.84-1.793,9.209,9.209,0,0,0,4.449-2.16c0-.871-.738-.215-1.059-.027-.605.27-2.7,1.18-3.055,1.008a32.628,32.628,0,0,0,2.625-2.574,6.617,6.617,0,0,0,5.2-2.3c0-.363-.27-.363-.441-.363-1.555,1.035-2.855,1.852-4.758,1.531a10.082,10.082,0,0,0,3.777-2.656,8.424,8.424,0,0,0,4.074-2.2c.242-.418-.039-.523-.281-.562a8.552,8.552,0,0,1-4.316,1.555,12.791,12.791,0,0,0,3.887-5.43,18.135,18.135,0,0,0,3.4-1.418c-.145,1.9-.281,3.4.82,5.211A120.843,120.843,0,0,0,46.273-42.362c-.992,1.516-3.258,4.223-.375,5.172,1.191,0,2.074-.668,3.375-.039.91.844,1.395,1.488.91,2.867-.977,1.3-2.586.629-3.859.484a1.92,1.92,0,0,0-.187.16c0,.59.887.965,1.516,1.23,0,.59-1.941.242-2.156.2,0-.215,0-.43.012-.645a2.547,2.547,0,0,0-.844-.508,2.818,2.818,0,0,1-.789-1.57,2.251,2.251,0,0,0-1.246-.078A5.344,5.344,0,0,1,40-36.37c-.238-.016-.48-.016-.707-.016q-2.373,3.357-4.719,6.715c.082,1.176.6,2.852-.738,3.6-.414.066-.535.027-.7.418C32.551-25.464,32.7-25.585,32.457-25.05Zm-7.234-2.641a2.759,2.759,0,0,1-2.2-1.836,8.1,8.1,0,0,0,2.066.2,3.83,3.83,0,0,0,.254,1.594C25.3-27.718,25.262-27.7,25.223-27.691ZM24.148-30.1c-.375-.094-.75-.187-1.125-.27.016-.078.027-.145.043-.215a3.978,3.978,0,0,0,1.969.391v.055C24.738-30.128,24.445-30.116,24.148-30.1Zm21.117-.27a4.314,4.314,0,0,1-1.367-.414,5.54,5.54,0,0,0,1.395-.723,6.4,6.4,0,0,0,2.117.16A2.371,2.371,0,0,1,45.266-30.37ZM20.8-38.542a2.027,2.027,0,0,1,.039-1.676h.109c.133.16.535.43.613.789A7.861,7.861,0,0,0,20.8-38.542Zm82.672-29.477c-.3-.4-.59-.8-.871-1.2a14.653,14.653,0,0,1-2.465-6.965c.789-.871,1.258-2.844,1.566-3.914.11-.59.215-1.18.324-1.754.133.094.282.188.426.293-.094.5-.187,1-.265,1.516a40.182,40.182,0,0,0,.453,8.16C102.988-70.042,102.988-70.042,103.473-68.019Zm10.664,11.48c-1.418-2.062-2.813-4.074-3.992-6.1-.5-.949-.993-1.9-1.489-2.852a50.776,50.776,0,0,1-2.851-7.664A47.923,47.923,0,0,1,105-78.566c0-.375.066-1.379-.215-1.516-.148-.4-.281-.789-.414-1.176a14.809,14.809,0,0,0,2.332-4.559c.16-.844.309-1.7.4-2.492-.015-.562-.027-1.125-.042-1.687-.321-1.621-.321-1.621-.282-1.633.645.6.645.6.723.723a65.067,65.067,0,0,0,.848,12.594c.6,3.07,1.3,6.2,2.14,9.379.469,1.555.953,3.121,1.434,4.691,0,.027.5,1.676.937.777-.668-2.105-.668-2.105-1.031-3.391a99.65,99.65,0,0,1-1.6-12.594c-.149-3.336-.243-6.582-.325-9.781.684.32,1.383.641,2.078.977,1.45,2.855,1.836,6.191,2.321,9.461.293,3.617.4,7.246.4,10.945-.066,1.582-.133,3.164-.187,4.742-.348,4.289-.442,5.039-.481,5.883C114.164-56.593,114.164-56.593,114.137-56.538Zm15.008-6.215a10.089,10.089,0,0,1-5.293-2.508c-.375-.359-.75-.723-1.125-1.086a34.414,34.414,0,0,1-4.262-6.2c-.387-.789-.762-1.566-1.137-2.344-.082-1.02-.16-2.039-.242-3.043h.055a33.321,33.321,0,0,0,6.308,10.359c1.61,1.527,3.754,3.5,6.059,4.258.238-.16.238-.238.238-.48a34.624,34.624,0,0,1-4.891-5c-.828-1.246-.828-1.246-1.632-2.586-2.774-5.148-4.5-10.668-6.3-16.105.039-.2.078-.4.133-.59,1.621,3.176,3.148,6.348,4.691,9.688A32.492,32.492,0,0,0,122.742-75c1.832,4.773,4.285,8.871,8.746,11.848A6.724,6.724,0,0,1,129.145-62.753Zm7.234-5.5a2.926,2.926,0,0,0-.4-.684c-2.21-1.621-4.289-3.281-6.191-4.941a77.029,77.029,0,0,1-5.976-6.5c-.579-.789-1.141-1.582-1.7-2.371a37.188,37.188,0,0,1-5-10.2,12.968,12.968,0,0,0-2.695-4.609,8.266,8.266,0,0,1,2.6,1.129c.171.145.347.3.535.469,5.816,6.7,10.84,14.363,15.918,21.746h.32a1.486,1.486,0,0,1,.148-.16,17.085,17.085,0,0,0-1.968-5.012,192,192,0,0,0-10.465-16.375c1.113,0,2.222.027,3.39-.066a9.146,9.146,0,0,1,1.016-.27,37.546,37.546,0,0,0,13.777,7.238c.5.094,4.247,1.059,4.661.59v-.309c-.094-.082-2.157-.82-3.844-1.543-4.141-2.1-8.5-4.395-11.926-7.328.91.43,1.824.855,2.734,1.285a43.924,43.924,0,0,0,13.774,7.383c.695.16,1.406.324,2.117.484a31.908,31.908,0,0,1-5.641.91,29.648,29.648,0,0,1-7.382-.9,40.217,40.217,0,0,1-3.778-1.418,7.88,7.88,0,0,0-2.48-1.129c-.188.242-.188.137-.188.563.629.672,1.274,1.355,1.914,2.039a38.85,38.85,0,0,1,3.391,5.078,35.748,35.748,0,0,1,2.867,8.238c.188,1.273.363,2.629.5,4.063C136.4-69.991,136.379-69.12,136.379-68.249Zm4.019-28.27-1.82-.164a23.8,23.8,0,0,1-12.047-4.621c-1.445-1.312-3.281-2.867-3.992-4.543.16-.039.336-.078.508-.121,3.176,2.52,7.035,3.832,11.016,5.094,2.453.711,2.453.711,4.222,1.164.078-.066.16-.133.254-.2a.5.5,0,0,0-.094-.375c-4.531-1.864-9.472-3.633-13.386-6.368a.14.14,0,0,1-.028-.078c.176.012.364.028.551.055a40.73,40.73,0,0,1,9.246.574,12.529,12.529,0,0,0,1.781.805c1.016.535,2.051,1.07,3.082,1.6A26.161,26.161,0,0,1,147.664-97a1.165,1.165,0,0,0,.066.2c-.136-.055-.269-.109-.4-.148-.363,0-1.433.188-3.308.359C142.813-96.573,141.605-96.546,140.4-96.519Zm-12.5-12.2a12.036,12.036,0,0,0,1.141-1.395c0-.425-.418-.507-.469-.7,1.727-.148,3.524-.375,5.305-.617a57.882,57.882,0,0,0,10.5.4C139.059-108.968,133.445-108.808,127.9-108.714Zm-1.875-3.43a33.989,33.989,0,0,0-4.234-1.394c7.289-1.5,14.633-2.6,22.094-3.375a1.64,1.64,0,0,1,.2-.149v-.32a.639.639,0,0,0-.336-.148c-4.582.414-9.164.871-13.613,1.246-6.3.629-6.3.629-6.914.656a14.13,14.13,0,0,0,2.652-3.43,69.1,69.1,0,0,1,9.836-.75c.535.082,2.547.176,4.113.348a24.924,24.924,0,0,1,5.668,2.062,3.3,3.3,0,0,0-1.676.711A42.586,42.586,0,0,1,126.023-112.144Zm.536-8.629c.015-.093.027-.187.039-.269a23.734,23.734,0,0,0,7.664-3.012c1.609-.309,3.218-.644,4.84-1.074.964-.348,1.941-.695,2.921-1.031-.324.32-.644.656-.953.992a16.2,16.2,0,0,1-6.379,3.484c-.8.172-1.605.348-2.41.535A49.768,49.768,0,0,1,126.559-120.773Zm-.9-1.285a14.884,14.884,0,0,0-5.09-1.058q8.825-4.143,17.848-8.176c-.082-.188-.148-.36-.215-.535-.187.039-.363.082-.535.132-5.039,1.852-10,3.715-14.9,5.723-2.118.938-2.118.938-2.129.9a58.2,58.2,0,0,1,9.1-6.27,30.008,30.008,0,0,1,6.457-1.289,30.948,30.948,0,0,1,3.457.176c-.117.078-.226.16-.332.242a24.8,24.8,0,0,1-4.3,5.48c-.578.454-1.153.911-1.731,1.364a25.846,25.846,0,0,1-6.551,3.058C126.371-122.234,126.008-122.152,125.66-122.058Zm-4.555-4.824c.2-.844.4-1.731.524-2.481,1.527-1.484,3.148-3.1,4.57-4.66a54.364,54.364,0,0,0,6.578-4.074,9.26,9.26,0,0,1,1.258-1.047c-1.191,2.934-3.7,4.934-5.988,7.051C125.742-130.327,123.438-128.6,121.105-126.882Zm-6.566-3.484q7.659-7.014,15.328-14.016c-1.379,5.133-4.515,9.445-8.332,13.09-.094,0-.176-.094-.98-.266a18.211,18.211,0,0,0-4.313.574C115.664-130.78,115.1-130.581,114.539-130.366Zm-1.109-.668a19.405,19.405,0,0,0,.023-2.508c2.293-2.09,4.5-4.246,6.582-6.551a42.552,42.552,0,0,1,6.75-4.516c.778-.363,1.555-.711,2.332-1.058a7.436,7.436,0,0,1,1.621-.524,2.507,2.507,0,0,0-.722,1.4c-.188-.254-.321-.16-.442-.16C124.055-140.511,118.668-135.831,113.43-131.034Zm-.176-3.352a12.118,12.118,0,0,0-1.352-3.164.429.429,0,0,0-.121-.012.271.271,0,0,1,.012-.105c4.207-3.942,8.281-8.149,12.312-12.25a.222.222,0,0,0,.016.094,65.327,65.327,0,0,1-5.723,9.73C116.711-138.1,115.09-136.261,113.254-134.386Zm-74.86-.227c-1.9-1.945-1.9-1.945-2.977-3.109a73.9,73.9,0,0,1-5.051-6.941c-.523-.926-1.047-1.836-1.555-2.746a19.388,19.388,0,0,1-1.246-2.774c3.98,4.1,8.094,8.188,12.328,12.313a3.923,3.923,0,0,0-.617.91C38.984-136.183,38.688-135.405,38.395-134.613Zm-.176,3.348c-5.09-4.769-10.426-9.34-15.73-13.64-.172-.106-.348-.215-.508-.321-.2.067-.242.067-.324.2a2.5,2.5,0,0,0-.762-1.433c3.887,1.113,7.2,3.363,10.449,5.883,1.129,1.007,2.281,2.359,3.473,3.605,1.137,1.047,2.277,2.09,3.418,3.149C38.191-131.773,38.191-131.773,38.219-131.265Zm-1.125.672c-.309-.137-.6-.27-.9-.391-1.687-.468-4.5-1.351-6.016-.523-.656-.641-1.312-1.27-1.957-1.9a34.085,34.085,0,0,1-3.43-4.489c-.7-1.218-1.34-2.4-1.875-3.55a27.378,27.378,0,0,1-1.113-3.161C37.121-130.636,37.121-130.636,37.094-130.593Zm-6.566,3.441c-.094-.121-.094-.121-4.73-3.507a38.271,38.271,0,0,1-7.262-6.93,14.6,14.6,0,0,1-.9-1.82,40.8,40.8,0,0,0,7.813,5.089c1.582,1.715,1.582,1.715,3.457,3.633a11.323,11.323,0,0,0,1.152,1.059C30.207-128.812,30.367-127.98,30.527-127.152Zm-4.637,4.864a32.05,32.05,0,0,1-5.625-2.168c-.617-.391-1.219-.766-1.824-1.141a24.658,24.658,0,0,1-5.039-5.2c-.348-.574-.68-1.152-1.016-1.715-.3-.133-.3-.133-.3-.187a23.865,23.865,0,0,1,5.359.027c.617.1,1.246.226,1.879.348,1.34.363,2.117.628,2.609.722a85.436,85.436,0,0,1,7.813,5.215C31-125.343,31-125.343,30.984-125.3c-5.789-2.48-11.7-4.746-17.488-6.793-.078.188-.16.387-.227.586,5.937,2.641,11.965,5.2,17.887,8.16A21.086,21.086,0,0,0,25.891-122.288Zm-3,1.246c-5.051-.442-9.863-1.457-13.211-5.371.078-.016.883.347,2.988,1.058,1.5.364,3.082.75,4.73,1.071.535.308,1.07.617,1.606.937a26.9,26.9,0,0,0,6.086,2.039,1.652,1.652,0,0,0,.024.227C24.363-121.066,23.629-121.054,22.891-121.042Zm2.063,8.672c-1.031-.121-2.062-.231-3.082-.336a54.862,54.862,0,0,1-12.152-3.215,21.136,21.136,0,0,1-2.4-1.422c-.4-.094-.789-.187-1.18-.281,1.57-.711,1.57-.711,3.352-1.434.641-.187,1.285-.363,1.93-.535a38.045,38.045,0,0,1,6.512-.484c2.613.148,5.184.39,7.906.777a11.334,11.334,0,0,0,2.613,3.43c-.2.027-3.418-.321-15.519-1.391-3.387-.363-3.387-.363-5.129-.5a1.461,1.461,0,0,0-.2.148,2.9,2.9,0,0,0-.012.321c.078.054.16.105.254.16a199.919,199.919,0,0,1,22.043,3.363c-1.477.414-2.871.844-4.223,1.367C25.422-112.4,25.184-112.386,24.953-112.37Zm-3.8,3.441c-4.781-.254-9.367-.656-13.8-2.3,1.609.067,3.363.137,5.09.082,2.414-.175,2.414-.175,5.414-.484,2.723.352,2.723.352,5.359.617-.426.348-.453.254-.519.7a12.288,12.288,0,0,0,1.082,1.3C22.809-108.929,22.008-108.941,21.148-108.929ZM8.688-96.734c-.684-.055-1.367-.109-2.051-.16a5.592,5.592,0,0,0-2.691-.121c0-.484,1.445-1.9,1.742-2.254.48-.441.965-.883,1.461-1.324a45.518,45.518,0,0,1,8.184-5.066q.809-.365,1.609-.711c2.129-.305,4.223-.52,6.43-.629a19.07,19.07,0,0,0,3.27,0,.226.226,0,0,0,.016.094c-4.035,2.761-8.965,4.542-13.414,6.39-.078.176-.2.215.016.5.121.016.238.028.375.043,5.024-1.394,10.262-2.789,14.59-5.883.4-.4.336-.4.953-.187a26.351,26.351,0,0,1-3.137,3.766A28.011,28.011,0,0,1,21.5-99.214c-1.285.551-2.5,1.02-3.738,1.422a42,42,0,0,1-4.731.9C11.543-96.816,10.066-96.749,8.688-96.734Zm6.621,28.176c.012-1.125.023-2.238.051-3.348a33.5,33.5,0,0,1,2.332-9.473c.711-1.516.711-1.516,1.473-2.949a45.244,45.244,0,0,1,3.406-4.758,10.469,10.469,0,0,0,1.418-1.539c-.121-.508-.309-.469-.6-.43a37.268,37.268,0,0,1-4.918,2.238,34.262,34.262,0,0,1-6.2,1.164H9.586a28.336,28.336,0,0,1-5.117-.883c1.727-.375,1.727-.375,2.973-.723A49.006,49.006,0,0,0,18.6-95.019c.644-.484,1.289-.965,1.93-1.434a25.338,25.338,0,0,0,2.629-1.262.114.114,0,0,0,.012.055A64.67,64.67,0,0,1,9.051-89.445c-1.637.563-1.637.563-1.715.641a2.252,2.252,0,0,0-.016.324c.563.48,4.836-.684,5.789-.914.7-.238,1.395-.48,2.105-.723A36.415,36.415,0,0,0,25.73-96.308c.5,0,1.313.27,2.039.352,1.688,0,2.355-.055,2.465-.027A184.2,184.2,0,0,0,19.875-79.945a20.5,20.5,0,0,0-2.145,5.316c.027.043.07.094.109.148a3.307,3.307,0,0,1,.387.016c3.848-5.617,7.746-11.258,11.8-16.723a38.3,38.3,0,0,1,4.891-5.7,14.651,14.651,0,0,1,2.332-.9,13.02,13.02,0,0,0-2.465,3.992,35.943,35.943,0,0,1-3.3,7.719,60.205,60.205,0,0,1-5.574,7.84c-1.2,1.34-1.2,1.34-2.652,2.852a88.437,88.437,0,0,1-7.57,6.219A2.779,2.779,0,0,0,15.309-68.558Zm6.512,5.535a8.428,8.428,0,0,1-1.637-.4,21.356,21.356,0,0,0,7.449-8.75A23.082,23.082,0,0,0,29.91-78.6c1.543-3.258,3.082-6.473,4.691-9.676a1.413,1.413,0,0,1,.148.563c-1.973,6.043-3.941,12.395-7.371,17.875-1.34,1.836-1.34,1.836-1.875,2.465-.645.629-1.285,1.273-1.93,1.918a19.119,19.119,0,0,0-1.637,1.406c.016.133.043.266.07.4a3.549,3.549,0,0,1,.4.027,23.87,23.87,0,0,0,6.75-5.254c.563-.75,1.125-1.488,1.7-2.223a48.12,48.12,0,0,0,3.711-7.062c-.078,1.02-.16,2.051-.227,3.082-.5.977-.992,1.957-1.477,2.934-2.262,3.844-5.023,7.906-9.578,9.02C22.8-63.1,22.3-63.062,21.82-63.023Zm26.355-5.226c.332-1.258.332-1.258.684-2.867.613-3.5,1.1-7.289.4-10.68.051-.094.051-.094.426-.293a14.447,14.447,0,0,0,1.852,5.652A14.29,14.29,0,0,1,48.176-68.249ZM37.551-56.859a10.582,10.582,0,0,0,.105-1.152c-.375-2.988-.48-5.816-.629-8.711-.066-6.754-.109-13.855,2.008-20.23.215-.512.43-1.008.645-1.5.7-.336,1.395-.672,2.105-1.008-.055,2.078-.109,4.168-.164,6.258-.293,6.484-.7,13.172-2.812,19.441.066.3.32.391.617.16a91.546,91.546,0,0,0,3.227-11.426,93.307,93.307,0,0,0,1.438-9.383c.117-2.3.188-4.539.094-6.766.238-.227.492-.453.75-.684A11.948,11.948,0,0,0,47.3-81.488a4.454,4.454,0,0,1-.59,1.367c-.027.7-.055,1.395-.082,2.09-.574,5.977-2.879,11.309-5.895,16.535A48.805,48.805,0,0,1,37.551-56.859Zm25.672-80.57a3.4,3.4,0,0,1-2.8-1.93c.441.149.9.3,1.352.446-.133.133-.094.133-.094.414.832.617,1.758.5,2.867.469,2.613-.485,5.43-1.54,8.176-1.422a3.392,3.392,0,0,0-.418.75c-.387.043-.871,0-2.422.043C67.645-138.405,65.352-137.683,63.223-137.429Zm-.617-1.434a14.016,14.016,0,0,0,2.008-.507c2.762-1.407,4.824-2.9,8.043-2.012.32.121,1.875.777,2,1.141a8.976,8.976,0,0,0-4.906-.336C67.309-140.027,65.043-139.077,62.605-138.863Zm15.008,1.528c-1.449-.535-3.191-1.231-4.609-.668.16-1.621,1.031-.723,2.063-1.059.926-.551.6-1.234.094-1.863a6.948,6.948,0,0,0-3.633-1.527c-.816,0-1.578.093-2.289.066-.227-.281-.441-.562-.656-.828-2.09-1.836-5.547-1.57-7.961-1.1,0-1.554-.121-2.8.8-3.992,1.3-1,2.8-.644,4.395-.269a9.819,9.819,0,0,1,2.762,1.785c2.09,2.14,3.3,3.48,3.484,3.617a10.673,10.673,0,0,1,5.359,3.711C77.641-139.034,78.363-137.71,77.613-137.335Zm-9.836-11.121a7.682,7.682,0,0,0-1.742-.9,6.374,6.374,0,0,1,4.461-3.1c2.883-.336,5.828.4,8.766.976,2.477.282,4.539.563,6.75-.992a2.364,2.364,0,0,1,.055,1.356c-2.062.855-4.676.668-6.777.629-3.793-.364-3.793-.364-7.184-.766-2.344,0-4.02.148-4.234,2.8Zm17.34,1.34a55.435,55.435,0,0,1-11.043-2.84c3.859.484,7.625,1.113,11.617,1.34a8.052,8.052,0,0,0,2.68.066c0,1.18-.348,1.031-1.434,1.406C86.32-147.144,85.719-147.128,85.117-147.116ZM73.594-113a1.525,1.525,0,0,0-.121-.106c-.7-2.625.16-4.593,1.914-6.457-.91,0-.574-2.2-.535-2.64a15.528,15.528,0,0,1,.711-1.957,35.863,35.863,0,0,0,3.445-6.27c.105-.457.066-.859.586-.859.7.7-.238,2.988-.586,3.808a27.841,27.841,0,0,0-3.3,6.938c-.055.242-.094.484-.137.738a.59.59,0,0,1,.137-.094c.078.028.414.149.441.442a.615.615,0,0,0-.133.148,36.772,36.772,0,0,0-2.012,6.192A.544.544,0,0,1,73.594-113Zm-9.742-2.047c-.523-.137-1.246-.254-.859-.777.148-.055.59-.055,1.434-.231a14.038,14.038,0,0,0,4.516-4.113c1.582-2.211,2.723-3.926,2.844-4.02h1.34c.145.149.121.094.16.457-1.875,3.243-4.367,7.063-8,8.481A9.275,9.275,0,0,1,63.852-115.05Zm12.594-1.742c-.922-.457-.051-3.176.148-3.8.227-.551.469-1.1.711-1.648,2.879-5.6,6.324-11.188,5.32-17.633-.215-1.02-.562-1.973-.766-2.91a1.112,1.112,0,0,1,.109-.16c.094-.012.2-.028.3-.04a12.243,12.243,0,0,1,1.609,3.5,22.654,22.654,0,0,1,.535,2.453,18.477,18.477,0,0,1-.094,4.031c-.992,4.3-3.3,7.625-5.762,11.336a15.342,15.342,0,0,0-1.7,3.8C76.82-117.37,76.914-117.062,76.445-116.792Zm-13.852.414c2.41.683,5.531-3.363,6.75-4.863.617-.844,1.234-1.688,1.852-2.52-.043-.375-.094-.684-.375-.711,0-.308.414-.172.656-.16,2.184-.856,3.859-1.5,5.25-3.457,1.3-2.172,1.246-4.945,1.031-7.289a1.741,1.741,0,0,0-1.5-1c-.133.121-.254.242-.375.363.082.508.176,1.016.27,1.528.105,3.265-.7,6.4-3.539,8.425a26.546,26.546,0,0,0,2.105-2.879,8.224,8.224,0,0,0-.148-8.363,9.033,9.033,0,0,1,2.719.75c2.094,0,1.461-1.93.914-3.215a11.463,11.463,0,0,0-5.8-4.168,48.293,48.293,0,0,0-3.949-4.047,1.066,1.066,0,0,0-.109-.05v-.11c.391-.281.309-.949.441-1.367a3.78,3.78,0,0,1,1.863-.629,2.177,2.177,0,0,0-1.152,1.555c0,.309-.133.723.43.723.668-.4-.109-1.446,1.137-1.325-.281,2.25,1.207,3.321,3.27,4.192a1.626,1.626,0,0,1,.258-.172v-.309c-.832-.722-2.855-2.343-1.863-3.4.188.039.375.078.574.133.2,1.219-.309,1.984,1.141,2.625h.574c.281-.43-.066-1.059-.16-1.352,0-.23,0-.441.016-.656.16-.082,1.016.293,1.34.414.094.2-.109.668-.242.883-.441.242-.617.2-.617.7.563.43,2.105-.418,2.6-.914a11.342,11.342,0,0,1,2.25.711c1.461.375,2.973.777,4.594,1.074.777.051,1.555.106,2.332.16.16.524.336,1.059.512,1.594a30.6,30.6,0,0,1,.535,6.043c-.27,3.656-.82,7.223-.512,10.961a8.19,8.19,0,0,1-.348-3.7c.348-4.7,1.1-10.063-.762-14.418a6.585,6.585,0,0,0-1.809-.469c-.281.281-.242.441.117.844a18.478,18.478,0,0,1,1.207,6.367c.055,3.109.027,6.2.27,9.418.027.226.43,3.457,1.434,2.25.078.3.172.59.266.887-.656.132-.723-.243-1.2-.243-.082.082-.16.161-.23.243-.238,3.816-1.23,8.574,3.914,9.433a5.39,5.39,0,0,1-2.012,3.055c-3.215,0-4.246-3.8-4.848-6.152-.418-.36-.523-.039-.629.23-.148,2.117-.445,6.309-2.332,7.8a20.679,20.679,0,0,1-2.133-8.563c-.723-.8-.855,1.164-.937,1.528a11.523,11.523,0,0,1-4.93,6.031c-.16-1.074-.16-1.074-.254-2.051a23.621,23.621,0,0,1,.723-6.633c-.027-.121-.055-.226-.082-.336-.238-.093-.266-.078-.4-.027-.187.27-.574,1.031-.988,1.676C70.691-118.066,61.621-111.359,62.594-116.378Zm17.965,4.1a2.6,2.6,0,0,0-.2-.175,36.434,36.434,0,0,1,.535-7.086c.121-.121.133-.11.4-.137,1.086.727.215,4.957-.012,6.059C81.109-113.042,81.176-112.48,80.559-112.277Zm8.348-2.867a11.886,11.886,0,0,1-1.473-.336c-2.316-1.047-2.68-2.222-3.066-4.433a37.214,37.214,0,0,1,.7-6.395c.5-.16.5-.16.6-.144a3.079,3.079,0,0,1,.844,1.191c-.453,2.949-1.527,6.887,1.5,8.938a13.47,13.47,0,0,0,1.605.617C89.9-115.132,89.4-115.171,88.906-115.144Zm-7.1-36.89c-2.559-.239-5.184-.789-7.637-1.231-1.77-.16-3.98-.336-5.531.5a.554.554,0,0,0-.148-.015c-.16-.668-.32-1.325-.484-1.981a90.152,90.152,0,0,0,15.234-.043c-.211.9-.426,1.8-.629,2.695C82.344-152.085,82.074-152.058,81.8-152.034ZM74.4-155.206c-2.254-.231-4.543-.567-6.676-.926-.133-.457-.266-.91-.387-1.356,4.02.165,4.02.165,7.906.231v-.633a32.457,32.457,0,0,1-4.371-.387c0-.429-.078-.843-.078-1.164.254-.98.75-1.918,1.07-2.91,0-1.324-.281-2.492.148-3.683a3.49,3.49,0,0,1,2.293-.7,5.991,5.991,0,0,1,.094-.617.668.668,0,0,1-.324-1.191c.723-.043.723-.043.832-.094.066.078.148.16.227.254a2.447,2.447,0,0,1,.348-.016c.043-.051.082-.105.137-.16a3.261,3.261,0,0,1-.016-1.527h.082a5.146,5.146,0,0,1,.105.992c-.094.375-.281.723.348.723a.473.473,0,0,0,.2-.2c.816.028,1.113-.175,1.113.817a1.164,1.164,0,0,1-.512.4c.016.2.027.4.043.617a4.376,4.376,0,0,1,2.277.629c.188.762.508,2.653.145,3.391a4.726,4.726,0,0,0,.363,1.34,4.433,4.433,0,0,1,.629,3c.016.054.043.1.066.175-1.5.133-3.066.254-4.461.3v.59a75.557,75.557,0,0,0,7.945-.227,4.9,4.9,0,0,1-.4,1.4c-2.25.4-4.434.7-6.605.9C76.086-155.234,75.242-155.222,74.4-155.206Zm-.859-2.989c-1.047-1.273-1.3-1.543-.926-2.988.391-.82.777-1.676,1.074-2.465a.579.579,0,0,1,.414-.109c.176.227.348.457.535.684,0,1.609-1.727,2.679-.617,4.476C74.02-158.265,73.781-158.222,73.539-158.195Zm3.938,0a.453.453,0,0,1-.172-.445c.844-1.566-.242-2.812-.711-4.258-.039-.027-.066-.054-.094-.07a3.421,3.421,0,0,1-1.379.188c-.523-.575.266-.668.617-.723a1.738,1.738,0,0,0,.066-2.664c-.617-.11-1.008-.176-.75-.684.883-.441,2.1.348,2.543,1.246a2.3,2.3,0,0,1-.145,1.793c.375.606.723,1.543,1.125,2.36.469,1.593.32,1.9-.82,3.23A1.783,1.783,0,0,0,77.477-158.195Zm-7.2-.043c-1.109-.214-2.223-.414-3.336-.613A11.494,11.494,0,0,1,66.1-160.9a19.455,19.455,0,0,0-2.879-4.582,8.443,8.443,0,0,1,3.375,1.528,11.139,11.139,0,0,1,2.09,2.894.6.6,0,0,0,.43.106c.348-.348-.082-.953-.2-1.219-.164-.805-.27-1.742.375-2.172.762-.066,1.875.336,1.727,1.422a9.266,9.266,0,0,0-1.125,3.469C70.016-159.054,70.148-158.652,70.281-158.238Zm10.68,0c.121-.347.242-.695.375-1.042a7.742,7.742,0,0,0-.988-3.379c-.23-1.032.16-1.313,1-1.688a1.2,1.2,0,0,1,.883.121,3.333,3.333,0,0,1-.281,2.961c.391,1.18,1.594-1.473,1.609-1.488a5.259,5.259,0,0,0,.762-.895,7.458,7.458,0,0,1,3.711-1.8c-.3.36-.6.723-.895,1.086a29.669,29.669,0,0,0-2.734,5.465C82.7-158.53,82.7-158.53,80.961-158.238ZM62.379-97.9A32.914,32.914,0,0,1,53-100.378c-.59-.363-1.18-.711-1.77-1.059-.672-.511-4.02-2.746-3.055-3.23a12.477,12.477,0,0,1,2.586,1.207c1.836.711,1.836.711,2.945,1.07a24.913,24.913,0,0,0,6.66,1.074c.188-.07.27-.121.535.094.645.949,1.289,1.914,1.945,2.879C62.848-98.007,62.672-97.941,62.379-97.9Zm-14.07-15.851q-1.711-3.516-3.391-7.02c6.566.2,6.566.2,7.035.254-.617.9-2.6,1.114-3.469,1.285a4.593,4.593,0,0,0-.3.418,8.878,8.878,0,0,1,.176,5.024A.221.221,0,0,0,48.309-113.753Zm-9.07-2.945c-.469-.055-.926-.11-1.383-.161,5.883-3.539,5.883-3.539,5.992-3.55-.254.937-.512,1.875-.75,2.824A6.582,6.582,0,0,1,39.238-116.7Zm3.348-5.762a40.716,40.716,0,0,0-3.816-2.25,3.644,3.644,0,0,1,3.535-.043,6.111,6.111,0,0,0,.363,2.254A.61.61,0,0,0,42.586-122.46Zm2.2.937a35.926,35.926,0,0,1,2.316-6.968H47.2a9.363,9.363,0,0,1,.953,3.617,11.3,11.3,0,0,1-.336,1.609c-.105.027-.469.387-1.273,1.02A13.7,13.7,0,0,1,44.785-121.523ZM62.512-92.851a5.886,5.886,0,0,1-1.5-.586c-1.059-.871-.793-.98-1.824-.379-.309.109-.617.23-.922.352a9.338,9.338,0,0,1-4.652-.352c-.293-.117-.59-.238-.871-.359a7.649,7.649,0,0,0-1.484-.9c-1.742.414-3.941.9-5.121-.656-.254-.562-.5-1.113-.734-1.66-.43-.176-.375-.7-.684-.9A8.178,8.178,0,0,1,40.887-99.8a8.1,8.1,0,0,1-1.047-3.391c-.242-.214-.965-.628-1.582-1.07-1.672-1.808-1.887-3.59-1.461-5.883.121-.347.242-.683.363-1.019.617-1.11.59-.91-.4-1.688a12.248,12.248,0,0,1-1.031-1.527,5.577,5.577,0,0,1,1.207-5.68c1.418-1.031.992-.777.094-2.117a3.058,3.058,0,0,1,2.063-4.6,4.036,4.036,0,0,1,2.4.309c.375.27.629.605.992.148a4.35,4.35,0,0,1,3.441-4.074A3.559,3.559,0,0,1,49-129.3c.938,1.41.844,3.152.75,4.906.27.336.711.242,1.234.242a3.137,3.137,0,0,1,2.613,3.965c-.766,1.9-2.789,2.09-4.555,2.195-.043-.226-.082-.453-.109-.679,1.688-.281,2.883-.551,3.953-2.039-.027-.133-.039-.254-.055-.375a6.163,6.163,0,0,0-4.258-2.41l.2-1.125a7.859,7.859,0,0,0-1.539-4.879c-1.262,0-2.844,1.445-3.672,2.316a12.922,12.922,0,0,0-1.02,1.836,4.335,4.335,0,0,0-4.715.457,3.712,3.712,0,0,0,.938,2.813c.121.093.574.324.668.6-1.461,1.445-2.852,2.691-2.852,4.941.293.391,2.289.4,2.918.446v.051c-.227,0-.453,0-.668.015-.254.254-.16,2.117-.16,2.692a12.988,12.988,0,0,0,2.961,7.558c.309.336.629.668.949,1,.672.563,4.559,3.805,5.43,3.375.039-.1.039-.1.039-.375a16.062,16.062,0,0,1-5.441-7.57,11.1,11.1,0,0,1,.5-7.047c-.055-.121-.055-.121-.254-.266a2.332,2.332,0,0,1,.336-.176c1.191,2.024,2.906,3,5.129,4.075.754-.188.98-2.332,1.02-2.844a6.791,6.791,0,0,0,6.621-2.774,10.3,10.3,0,0,0,1.434-5.972,18.127,18.127,0,0,0-1.246-4.961,55.128,55.128,0,0,0-4.074-6.793c-.617-.816-1.234-1.633-1.848-2.438-.926-1.086-1.824-2.05-2.707-2.972-.937-.832-4.168-3.809-5.027-3.809-.172.176-.145.121-.145.418.949,1,1.914,1.942,3.75,3.883a79.819,79.819,0,0,1,5.3,6.687c.5.832,1.008,1.661,1.516,2.493,1.891,3.82,4.074,9.285,1.207,13.347a5.284,5.284,0,0,1-4.863,1.473,2.852,2.852,0,0,1-.109-.32c1.891-.071,3.551-.43,4.758-1.973a3.836,3.836,0,0,0-1.234-4.891,6.437,6.437,0,0,0-2.25-.683c.039-1.914.105-3.645-1.18-5.078a4,4,0,0,0-1.715-.989,6.7,6.7,0,0,0-1.754-3.363c-3.887-3.578-4.062-3.687-7.371-6.8-.172-.105-3.484-3.215-3.656-3.32q-3.621-3.357-7.211-6.7c-.238-.043-.238-.043-.375,0a2.517,2.517,0,0,0-1.23-1.383,45.3,45.3,0,0,1,19.4,7.2,41.949,41.949,0,0,1,13.211,15.934,19.724,19.724,0,0,1,1.164,4.758v1.7a9.766,9.766,0,0,1-2.277,5.469,14,14,0,0,1-2.051,1.511c-.43.137-.855.27-1.273.418-1.594,0-1.367-.2-1.539,1.27,0,1.769.027,2.6,1.527,3.886,2.063,1.274,4.648,1.77,7.113,2.321A13.087,13.087,0,0,0,62-105.874a6.772,6.772,0,0,0-.418,4.168A12.108,12.108,0,0,0,63.6-97.913a10.176,10.176,0,0,0,.734,4.969A9,9,0,0,1,62.512-92.851Zm25.055-13.09c-.777-.937-.707-2.156-.871-3.214a7.193,7.193,0,0,0-.816-1.61c-.227-.226-2.051-1.594-.656-1.418a6.214,6.214,0,0,0,2.238.59c.965.563.816,3.363.617,4.488,0,.242.051.883-.176,1.11A2.817,2.817,0,0,0,87.566-105.941Zm-.227,2.184a3.8,3.8,0,0,0-.336-.938c-1.109-1.582-2.4-2.828-3.121-4.433a26.879,26.879,0,0,0-.59-2.84,2.26,2.26,0,0,1,.457-.793c.105-.281.215-.547.336-.816a.336.336,0,0,1,.105.027c1.152,1.367,2.652,1.434,4.461,1.379.871,1.808,1.422,3.457.723,5.547C89.07-105.968,88.2-103.995,87.34-103.757Zm-7.047-1.418c-1.141-.965-.9-1.594-.965-2.949a13.188,13.188,0,0,0-.723-1.891c-.215-.32-1.527-1.82-.391-1.66.7.629,1.395,1.273,2.09,1.918a7.281,7.281,0,0,1,.5,2.613c-.066.293-.469,1.031-.172,1.434C80.629-105.335,80.707-105.284,80.293-105.175Zm-.59,1.555a2.487,2.487,0,0,0-.535-1.008,19.682,19.682,0,0,1-1.367-1.848,7.035,7.035,0,0,1-.4-6.406,8.614,8.614,0,0,0,3.094,2.762c.777,0,1.594-1.1,2.25-1.313a11.945,11.945,0,0,1-2.934,7.785A.218.218,0,0,0,79.7-103.62Zm-15.41-4.5a2.655,2.655,0,0,0-.242-.188c.082-1.742.484-3.683,2.066-4.582a13.323,13.323,0,0,1,1.848-.617c.082.16.16.336.242.508-.605.566-1.207,1.1-1.742,1.7-.645.805-1.687,1.93-1.836,3C64.535-108.2,64.535-108.2,64.293-108.124Zm7.156,2.586c-.336-.215-.2-.469-.121-.684a9.9,9.9,0,0,1,.457-2.922c.254-.5.508-.976.777-1.461a7.462,7.462,0,0,1,2.961-1.031.444.444,0,0,1,.094.484,4.879,4.879,0,0,0-2.254,2.024c-.133.265-.254.535-.375.805C72.773-107.628,72.441-105.7,71.449-105.538Zm.309,1.7a6.736,6.736,0,0,1-1.809-6.231c.656-.562,1.313-1.113,1.98-1.664.109.094.109.094.4.539a9.028,9.028,0,0,0,4.25-1.449,21.616,21.616,0,0,1-1.367,5.2C74.262-106.007,72.844-105.124,71.758-103.835ZM69.934-115.28c.512-.415.512-.415.617-.442a10.345,10.345,0,0,0,.375,1.742c.426,2.942-6.508,6.8-8.188,8.172-.387-.816-1-1.859-.75-2.652a10.864,10.864,0,0,1,.98-4.219C64.316-115.042,67.7-114.027,69.934-115.28ZM67.242-97.058a8.257,8.257,0,0,1-2.227-.656,14.142,14.142,0,0,1,2.789-3.16c.133.172.266.347.414.535a6.543,6.543,0,0,0,7.543.176c.336.2.684.414,1.035.629a6.551,6.551,0,0,0,5.773-.324A24.32,24.32,0,0,1,85-97.566a8.252,8.252,0,0,1-5.6-.082c-.43-.254-.551-.492-.91-.492a6.269,6.269,0,0,1-5.965.441c-.4-.254-.816-.617-1.18-.578A6.968,6.968,0,0,1,67.242-97.058Zm19.078-1.2a8,8,0,0,0-1.727-1.769c-.3-.364-.59-.723-.887-1.075a6.414,6.414,0,0,1-1.043-4.566,14.487,14.487,0,0,0,.949-2.508c.793,1.328,1.945,2.547,2.91,3.941a2.365,2.365,0,0,1-.23,1.915c0,.324-.051.3.309.468.633-.359.633-.359.738-.375C86.375-98.288,86.375-98.288,86.32-98.261Zm-15.328-1.785c-.9-.145-2.465-.492-2.746-1.363a9.577,9.577,0,0,0,1.527-3.137c1.328,1.582,1.328,1.582,2.277,2.6.121.015.336.093.484-.161-.094-.871-.27-1.23.094-1.847,1.512-1.246,1.621-1.285,3.563-2.907a8.64,8.64,0,0,0,.871,1.2c.6.468,2.039,1.406,2.039,2.441-.109.293-.793,1.445.023,1.445a19.587,19.587,0,0,0,1.836-1.582,5.715,5.715,0,0,0,.832,2.371c0,.3-1.445.684-1.637.739a6.568,6.568,0,0,1-4-.684c-.926-.695-.711-.59-1.555,0a9.5,9.5,0,0,1-2.4.816C71.8-100.1,71.395-100.07,70.992-100.046Zm-6.871,1.785c-1.691-2.277-2.441-3.941-1.809-6.676a3.488,3.488,0,0,0,.469.043c1.539-.9,3.215-1.808,4.715-2.855h.121a6.648,6.648,0,0,1-.535,5.051,34.382,34.382,0,0,1-2.895,3.5A2.768,2.768,0,0,0,64.121-98.261Zm7.648,26.93.547-.6c-.031,2.2-.035,4.418.125,6.633a15.686,15.686,0,0,0,.359,1.566q.744,1.547,1.488,3.1c.363.238.578-.027.523-.375A23.19,23.19,0,0,1,73.164-64.9c-.055-.418-.094-.832-.133-1.246q-.041-6.334-.055-12.637a15.9,15.9,0,0,0-1.031-6.309c.789,0,1.258,1.809,1.395,2.465.023.6.066,1.2.105,1.809.121.121.121.094.414.133.137-.105.137-.105.188-.242.27-4.02.27-4.02.27-4.781-.055-.066-.105-.137-.148-.187a8.635,8.635,0,0,0,1.582-.871,9.527,9.527,0,0,0,1.809.828v.094a1.676,1.676,0,0,0-.148.082c-.051.188-.414,7.785-.441,9.273.109.105.16.133.484.105a1.1,1.1,0,0,1,.133-.215c-.266-.855,1.285-8.336,2.172-9.082.133-.016.281-.027.426-.043a14.509,14.509,0,0,0-1.793,5.734c-.4,4.719-.137,9.422-.137,14.246-.441,1.66-1.836,3.176-2.895,4.527q-.035,2.772-.051,5.563a21.746,21.746,0,0,0-1.074-3.219c-1.766-2.707-1.766-2.707-2.383-3.766-.242-.133-.363.027-.469.094A43.031,43.031,0,0,0,71.77-71.331Zm9.367-15.34a7.736,7.736,0,0,1-4.785-.766c-1.086-.789-.949-.723-1.953,0-2.09,1.039-6.133.7-7.465-1.406,1.527,0,2.559.039,3.859-1.07h.133a7.352,7.352,0,0,0,3.738,1.23h1.875A11.03,11.03,0,0,0,80.3-89.741h.176a4.672,4.672,0,0,0,3.109.887c.426-.07.855-.137,1.3-.2C84.4-87.2,82.59-87.452,81.137-86.671Zm3.98-4.488a5,5,0,0,0-.965-1.008c-.352-.48-2.816-3.777-2.762-3.937a9.918,9.918,0,0,0,4.395-.457,6.68,6.68,0,0,1,.109,3.484c-.215.469-.43.938-.633,1.406C85.168-91.226,85.168-91.226,85.117-91.159ZM66.895-89.9c-.043-.027-.07-.039-.094-.055a6.063,6.063,0,0,1,1.848-2.785h.133c1.77,1.18,3.793.965,5.789.309.391-.23.777-.457,1.168-.684a6.572,6.572,0,0,0,6.535.336c.684,0,2.094,2,2.48,2.559a4.9,4.9,0,0,1-4.637-.711,2.958,2.958,0,0,0-.32-.027c-2.09,1.461-7.328,1.285-9.246-.133-.105-.016-.215-.027-.32-.039a5.329,5.329,0,0,1-2.266,1.2C67.6-89.929,67.242-89.913,66.895-89.9Zm-.23-1.609a3.313,3.313,0,0,0-.562-.734,7,7,0,0,1-1.219-4.582,12.073,12.073,0,0,0,2.09.777,18.709,18.709,0,0,0,2.441.012A29.71,29.71,0,0,1,66.664-91.511Zm4.559-1.527a18.681,18.681,0,0,1-1.879-.4,12.879,12.879,0,0,0,.871-1.648c.066-.418.137-.832.2-1.246a6.082,6.082,0,0,0,1.434-.75,1.505,1.505,0,0,1,.242.066,6.813,6.813,0,0,0,3.414,1,6.7,6.7,0,0,0,3.457-.91,10.567,10.567,0,0,1,1.328.59,4.388,4.388,0,0,0,1.1,2.586c-1.473.922-3.535.5-4.945-.027-1.219-.766-.844-.844-1.9-.121A7.79,7.79,0,0,1,71.223-93.038Zm37.785-29.157a7.239,7.239,0,0,0,.332-2.261,3.641,3.641,0,0,1,3.523-.082v.121C111.578-123.679,110.293-122.945,109.008-122.195Zm2.449,5.762a5.192,5.192,0,0,1-2.824-.894,20.225,20.225,0,0,1-.711-2.856q2.97,1.788,5.949,3.59Q112.664-116.51,111.457-116.433Zm-8.078,2.895a8.052,8.052,0,0,1,.1-5.024,1.019,1.019,0,0,0-.347-.441,7.678,7.678,0,0,1-3.4-1.219.317.317,0,0,1-.012-.094c2.355-.082,4.726-.164,7.1-.23Q105.1-117.048,103.379-113.538Zm3.445-7.77a7.424,7.424,0,0,1-2.91-1.715c-.832-1.675-.148-3.687.59-5.16h.109a56.148,56.148,0,0,1,2.344,6.875ZM88.5-97.671c-.562-.418.523-2.977.672-3.391a9.057,9.057,0,0,1,2.172-.043,36.206,36.206,0,0,0,9.9-2.316c.695-.348,1.391-.7,2.09-1.031.254.011.375.027.359.457-.535.468-1.058.949-1.578,1.433a20.889,20.889,0,0,1-5.738,3.243c-.816.238-1.621.48-2.422.723C92.148-98.195,90.3-97.886,88.5-97.671ZM87.34-91.777c-.2-.055-.387-.094-.574-.133a9.936,9.936,0,0,0,.48-5.348,14.36,14.36,0,0,0,.926-2.25,11.985,11.985,0,0,0,.078-3.391,6.812,6.812,0,0,0,2.332-3.847c.016-.36.027-.723.055-1.082a23.732,23.732,0,0,0,6.914-2.282c1.555-1.324,1.555-2.089,1.555-4-.094-1.152-.016-1.246-1.047-1.14-2.52-.242-4.125-2.117-5.2-4.047a12.792,12.792,0,0,1-.9-3.563c0-5.722,2.816-10.023,6.18-14.324,1.23-1.406,2.476-2.828,3.789-4.179,1.422-1.3,1.422-1.3,2.894-2.547a51.378,51.378,0,0,1,5.75-3.723c1.02-.484,2.051-.965,3.082-1.434,1.875-.71,1.875-.71,4.02-1.421a80.156,80.156,0,0,1,7.906-1.8.754.754,0,0,1,.145.027c-.481.375-1.11.723-1.176,1.395a.426.426,0,0,0-.469.027c-17.328,15.969-17.328,15.969-18.344,16.961a6.017,6.017,0,0,0-1.543,3.164c-2.933.9-3.039,3.43-2.922,6.148a3.726,3.726,0,0,0-3.308,5.778c1.1,1.285,2.855,1.621,4.57,1.687-.039.121-.082.242-.121.36a5.445,5.445,0,0,1-4.742-1.364c-2.535-3.621-1.367-7.879.133-11.55a47.975,47.975,0,0,1,3.054-5.254c.739-.993,1.473-1.969,2.223-2.946,1.973-2.359,4.074-4.531,6.207-6.726a1.377,1.377,0,0,1,.094-.242c-.188-.321-.281-.27-.469-.27-1.836,1.34-1.945,1.477-3.176,2.414-.109.133-.683.6-2.922,2.785-.628.739-1.261,1.489-1.875,2.239-2.183,3.07-4.531,6.175-5.855,9.742-.187.629-.363,1.273-.539,1.914-.668,4.179-.066,8.441,4.371,10.344a9.624,9.624,0,0,0,3.391.308c.2.457.226,2.817,1.2,2.817,1.851-.926,4.019-2.079,4.957-4.036.109.016.109.016.281.149a2.454,2.454,0,0,0-.172.308,12.133,12.133,0,0,1,.8,5.653,15.694,15.694,0,0,1-.9,3.015,18.583,18.583,0,0,1-3.55,4.786c-.442.375-.887.75-1.313,1.136,0,.321-.055.3.309.469a22.539,22.539,0,0,0,5.453-3.777,18.055,18.055,0,0,0,2.492-3.567,16.1,16.1,0,0,0,1.086-4.031c.039-.535.039-.535.039-3.176-.094-.121-.094-.121-.336-.242a7.04,7.04,0,0,0,2.4-.4c.105-2.356-1.407-3.535-2.829-5.024a7.111,7.111,0,0,0,1.059-1c.254-.59.777-1.968.484-2.453a4.462,4.462,0,0,0-4.675-.375,7.042,7.042,0,0,0-4.3-4.14,2.023,2.023,0,0,0-.309.015,7.1,7.1,0,0,0-1.383,5.961c-1.847.106-2.972,1.1-4.234,2.387,0,1.754,2.453,2.14,3.859,2.449a3.949,3.949,0,0,1-.066.7,7.519,7.519,0,0,1-3.738-.965,3.073,3.073,0,0,1,.227-4.6,4.206,4.206,0,0,1,2.574-.629c.055-.082.122-.16.188-.242a15.726,15.726,0,0,1,.133-3.59c.578-1.891,1.73-2.426,3.7-2.426,2.156.5,3.121,2.024,3.5,4.223a.483.483,0,0,0,.391.105c2.051-1.351,4.355-.937,5.371,1.539.176,1.528-.215,2.239-1.18,3.528,0,.144-.051.132.055.359a5.244,5.244,0,0,1,1.609,7.129,13.97,13.97,0,0,1-1.422,1.394v.2a6.93,6.93,0,0,1,.938,4.73,5.234,5.234,0,0,1-1.953,3.242,2.814,2.814,0,0,0-1.223.832,7.377,7.377,0,0,1-1.043,3.325,8.7,8.7,0,0,1-3.926,1.566,2.113,2.113,0,0,0-.363.777c-.48,0-.828,1.367-1,1.77-1.125,1.457-3.457,1.125-4.906.707h-.36a8.394,8.394,0,0,1-7.3,1.395c-.4-.215-.8-.43-1.191-.645a12.792,12.792,0,0,0-1.914,1.676A4.151,4.151,0,0,1,87.34-91.777Zm0,0" transform="translate(-47 236.3)" fill="#343a40" stroke="#fff" stroke-width="0.216" fill-rule="evenodd"/>
      </g>
      <g id="Group_4" data-name="Group 4" transform="translate(0 14)">
        <text id="Grażyna_Krok-Mondrzejewska" data-name="Grażyna Krok-Mondrzejewska" transform="translate(548.945 271)" fill="#343a40" font-size="56" font-family="Karla-ExtraBold, Karla" font-weight="800"><tspan x="0" y="0">Grażyna Krok-Mondrzejewska</tspan></text>
        <text id="Komornik_Sądowy_przy_Sądzie_Rejonowym_w_Dębicy" data-name="Komornik Sądowy przy Sądzie Rejonowym w Dębicy" transform="translate(553.945 313)" fill="#343a40" font-size="34" font-family="Karla-SemiBold, Karla" font-weight="600"><tspan x="0" y="0">Komornik Sądowy przy Sądzie Rejonowym w Dębicy</tspan></text>
      </g>
    </g>
  </g>
</svg>
