<svg xmlns="http://www.w3.org/2000/svg" xmlns:xlink="http://www.w3.org/1999/xlink" width="490" height="460" viewBox="0 0 490 460">
    <defs>
        <clipPath id="clip-Instagram_Story_1">
            <rect width="490" height="460"/>
        </clipPath>
    </defs>
    <g id="Instagram_Story_1" data-name="Instagram Story – 1" clip-path="url(#clip-Instagram_Story_1)">
        <rect width="490" height="460" fill="#f5f5f5"/>
        <g id="POL_location_map" transform="translate(-3.5 -1.5)">
            <path id="path1364" d="M426.611,454.213c-3.875-1.34-8.2-2.766-9.608-3.168a26.91,26.91,0,0,1-5.764-2.8,38.581,38.581,0,0,0-7.945-3.518c-2.721-.833-5.086-2.476-5.55-3.856-1.334-3.966-9.367-10.748-12.732-10.748-1.7,0-3.47-.59-3.943-1.312-.493-.753-3.662-1.154-7.441-.94-3.62.205-7.48-.156-8.577-.8-2.252-1.328-6.785-12.495-8.95-22.048-.918-4.047-2.334-6.811-3.9-7.6-2.929-1.48-3.211-4.248-.531-5.219a2.9,2.9,0,0,0,1.921-2.4,4.986,4.986,0,0,0-1.921-3.209c-1.283-1-1.922-3.721-1.922-8.17a45.5,45.5,0,0,0-1.447-11.224c-1.328-4.185-1.141-4.99,2.265-9.778,2.041-2.869,7.046-7.424,11.121-10.122s8.677-6.844,10.225-9.214c9.182-14.058,10.48-15.5,13.948-15.542,1.9-.021,3.8-.582,4.238-1.247a4.4,4.4,0,0,1,3.278-1.209c2.1,0,2.487.863,2.487,5.61,0,6.452,2.239,8.8,8.448,8.862,3.425.033,8.2,3.035,8.2,5.153,0,.381-2.017,1.816-4.483,3.189-3.7,2.06-4.484,3.2-4.484,6.529,0,5.321,1.959,6.933,8.426,6.933a32.482,32.482,0,0,1,9.951,1.814,40.4,40.4,0,0,0,12.021,1.814c6.373,0,7.6-.372,8.688-2.622,2.781-5.767,8.529-5.913,15.118-.385l3.606,3.026-5.721,7.1a109.62,109.62,0,0,0-7.321,9.966,14,14,0,0,1-2.5,3.468c-1.362.911-11.522,17.014-11.522,18.262a1.082,1.082,0,0,1-1.072,1.086c-.589,0-3.019,3.511-5.4,7.8l-4.327,7.8,2.3,6.032a22.82,22.82,0,0,1,1.421,12.655c-1.014,7.664,1.613,13.43,6.666,14.627,2.279.54,2.974,1.546,2.974,4.309C436.858,457.376,436.018,457.466,426.611,454.213Z" fill="#c9184a"/>
            <path id="path1340" d="M290.121,445.773c-2.311-2.41-3.389-2.47-8.9-.492-2.106.756-2.277.63-.96-.709.88-.9,1.6-4.241,1.6-7.433,0-5.8,0-5.8-4.37-5.8-5.323,0-11-5.6-11-10.846,0-1.912-.842-3.711-1.921-4.1a3.322,3.322,0,0,1-1.921-2.972c0-5.59-2.758-9.7-7.775-11.6-4.633-1.75-5.035-2.271-5.035-6.538,0-3.362-.866-5.4-3.153-7.432l-3.153-2.8,2.833-3.471c1.558-1.91,4.994-5.688,7.636-8.4,5.066-5.194,6.1-8.836,2.848-10.014-3.52-1.276,7.185-9.224,12.423-9.224,5.446,0,11.088-2.367,12-5.035.52-1.515,2.6-2.111,8.424-2.418,10.416-.549,11.378.142,11.378,8.16,0,6.253,2.219,11.7,5.735,14.087,2.2,1.493,10.963,1.025,14.563-.778,3.4-1.7,19.756-6.761,21.86-6.761,1.539,0,2.934,7.516,3.17,17.075.116,4.689.915,8.822,1.93,9.976,1.136,1.292,1.237,1.97.294,1.97-2.577,0-1.692,8.251,1.033,9.627,1.631.825,2.981,3.574,3.976,8.1a74.659,74.659,0,0,0,3.967,12.267c1.353,2.981,2.151,5.712,1.772,6.069s-4.428.552-9,.433c-7.929-.206-8.31-.086-8.31,2.62,0,6.176-8.514,9.133-11.44,3.972-1.5-2.642-2.455-2.877-12.252-3-9.98-.128-10.755.047-12.712,2.866-1.146,1.652-3.1,3-4.335,3-1.41,0-3.477,2.26-5.533,6.049C292.521,448.255,292.507,448.263,290.121,445.773Z" fill="#ece5e5"/>
            <path id="path1338" d="M239.591,430.227c0-.609-2.277-3.145-5.062-5.635-4.214-3.77-5.126-5.437-5.444-9.954-.237-3.367-1.111-5.743-2.3-6.262-9.921-4.314-9.607-3.955-9.607-10.963,0-6.425-.1-6.6-3.843-6.983-2.114-.217-4.391-.9-5.06-1.511a7.551,7.551,0,0,0-4.224-1.116c-3.625,0-14.543-10.368-13.533-12.852.371-.912,2-1.659,3.621-1.659s5.93-1.461,9.575-3.246c5.921-2.9,6.545-3.576,5.857-6.348-2.192-8.831-2.238-11.69-.212-13.277a5.224,5.224,0,0,0,2.054-3.244c0-.9,1.73-2.479,3.843-3.511s3.843-2.206,3.843-2.609c0-1.247-5.591-9.458-6.749-9.911-.6-.235-.169-1.392.961-2.57s2.4-4.251,2.822-6.828,1.9-5.716,3.294-6.976c2-1.818,2.4-3.385,1.892-7.592-.729-6.113.989-7.65,8.555-7.65,3.437,0,5.051.739,6.654,3.049,1.847,2.661,2.953,3.022,8.712,2.845,7.8-.241,11.906,1.8,12.991,6.466.628,2.7,1.486,3.36,4.385,3.36,2.022,0,3.928.8,4.342,1.813a3.058,3.058,0,0,0,2.577,1.814c1.4,0,1.679,1.131,1.168,4.725-.6,4.212-.2,5.12,3.63,8.353,4.127,3.481,4.211,3.722,2.074,5.951-2.736,2.854-2.879,6.2-.3,7.137,5.423,1.964-2.419,7.018-9.07,5.845-3.166-.558-4.674.2-9.824,4.931-6.487,5.959-7.218,7.465-4.164,8.571,2.841,1.029,2.383,2.477-2.241,7.088-10.629,10.6-12.216,14.853-6.791,18.209,2.442,1.51,3.222,3.167,3.522,7.484.358,5.137.714,5.647,4.859,6.959a8.6,8.6,0,0,1,6.24,5.8c2.241,5.558,1.379,7.6-4.283,10.149a13.229,13.229,0,0,0-6.691,6.649c-1.6,3.418-2.916,4.606-5.109,4.606C240.922,431.334,239.591,430.836,239.591,430.227Z" fill="#ece5e5"/>
            <path id="path1336" d="M178.329,382.585c-1.532-1.539-2.785-3.424-2.785-4.189s-1.153-1.974-2.562-2.686-2.562-1.87-2.562-2.574,1.153-1.564,2.562-1.912c1.9-.47,2.562-1.649,2.562-4.587v-3.955l-8.832-.471c-8.314-.444-9.13-.754-13.949-5.3-5.209-4.918-8.22-6.741-14.928-9.042l-3.763-1.291,4.084-2.344c2.34-1.343,4.083-3.348,4.083-4.7A2.777,2.777,0,0,1,144.9,336.8c2.472-.359,6.019-7.178,8.411-16.17.364-1.365,3.209-5.1,6.324-8.305s5.663-6.827,5.663-8.056a4.64,4.64,0,0,1,2.562-3.527c2.728-1.378,3.532-4.837,1.124-4.837-.993,0-.945-.56.157-1.814.877-1,3.253-1.813,5.281-1.813,2.832,0,3.686.56,3.686,2.418,0,2.088.854,2.418,6.248,2.418,3.991,0,6.824-.655,7.842-1.813,1.788-2.034,9.666-2.472,10.888-.605.436.665,2.686,1.209,5,1.209,4.739,0,8.449,3.064,8.449,6.977,0,1.4.577,2.891,1.281,3.3,2,1.164,1.514,3.926-1.1,6.3-1.309,1.19-2.726,4.271-3.148,6.848s-1.656,5.612-2.743,6.745c-2.049,2.137-2.736,7.313-.972,7.313.553,0,1.977,1.552,3.164,3.45,2.112,3.375,2.09,3.48-1.005,4.811-1.74.748-3.163,2.122-3.163,3.052a5.319,5.319,0,0,1-2.083,3.324c-1.7,1.328-1.948,3.157-1.356,9.822.559,6.286.339,8.19-.947,8.19-.92,0-3.139,1.088-4.931,2.418a14.064,14.064,0,0,1-7.131,2.419c-4.127,0-6.124,2.875-4.829,6.953.679,2.135-3.114,7.557-5.285,7.557C181.642,385.384,179.861,384.125,178.329,382.585Z" fill="#ece5e5"/>
            <path id="path1334" d="M116.666,371.524a9.237,9.237,0,0,1-2.608-5.419c0-2.511-4.213-8.116-11.509-15.311-3.613-3.563-3.219-5.981,1.261-7.732,3.327-1.3,3.843-2.127,3.843-6.146,0-3.219-.859-5.4-2.8-7.109-3-2.64-6.793-3.229-8.085-1.256-2.307,3.524-16.012-1.2-16.012-5.524,0-1.151-1.411-1.731-4.212-1.731-9.443,0-21.407-9.272-21.407-16.59,0-2.317-.6-2.871-2.882-2.647a15.512,15.512,0,0,1-6.5-1.359c-4.9-2.223-7.793-.376-8.3,5.3-.34,3.768-.854,4.412-3.523,4.412-3.783,0-3.919-1.14-.607-5.114a36.082,36.082,0,0,0,4.626-8.93,110.881,110.881,0,0,1,4.527-10.67c2.793-5.5,3.028-8.085.917-10.079-1.139-1.075-1.146-2.157-.028-4.474,1.5-3.1,4.573-4.047,6.013-1.847,2.419,3.695,12.169-.442,12.169-5.162,0-3.359,2.509-3.59,3.813-.352.686,1.7,1.982,3.089,2.88,3.08,4.715-.048,7.388-1.736,8.7-5.495.778-2.226,2.531-4.382,3.9-4.791,1.689-.506,2.742-2.282,3.3-5.565.573-3.384,1.337-4.633,2.563-4.189.961.348,1.747.106,1.747-.539a13.615,13.615,0,0,1,.172-2.078c.316-1.663,4.463-3.768,8.184-4.153,3.4-.353,3.761.008,4.8,4.83,1.441,6.709,4.42,6.433,8.072-.747l2.65-5.21,5.356,5.485c2.946,3.017,5.356,6.58,5.356,7.918,0,1.6,2.355,3.909,6.887,6.75,9.23,5.785,18.944,6.929,25.907,3.051l4.766-2.654,2.676,2.634c1.887,1.857,2.2,2.8,1.074,3.2-.88.31-1.6,1.814-1.6,3.342,0,2.275,1.023,3.022,5.64,4.119,5.56,1.322,5.647,1.422,6.168,7.1a57.623,57.623,0,0,0,1.086,7.57c.41,1.337-.453,1.792-3.287,1.73-4.267-.093-6.942,2.336-7,6.361-.022,1.457-.617,2.985-1.322,3.4a3.723,3.723,0,0,0-1.281,2.952c0,1.212-2.548,4.824-5.663,8.027s-5.96,6.939-6.324,8.305c-2.392,8.992-5.939,15.811-8.411,16.17a2.774,2.774,0,0,0-2.659,2.777c0,1.39-1.6,3.252-3.835,4.45-2.109,1.133-3.838,2.779-3.842,3.658a6.057,6.057,0,0,1-1.93,3.412c-2.97,2.8-2.317,5.205,2.562,9.424,5.614,4.854,5.639,6.413.119,7.391-2.4.425-6.415,2.546-8.921,4.713l-4.557,3.94Z" fill="#ece5e5"/>
            <path id="path1332" d="M309.374,366.32c-3.52-2.385-5.735-7.833-5.735-14.1,0-8.31-1.543-9.268-13.577-8.427-9.518.666-13.909-.658-11.071-3.337,2.921-2.757,1.85-7.853-2.351-11.19-3.726-2.959-3.861-3.363-2.463-7.362.814-2.328,1.919-4.232,2.456-4.232,1.279,0,3.949-5.579,3.949-8.251,0-1.71.933-2.007,5.124-1.63l5.124.461v-4.834c0-3.158-.659-5.073-1.9-5.523a1.884,1.884,0,0,1-1.144-2.548c.537-1.322,2.565-1.859,7.023-1.859,5.341,0,6.268-.346,6.268-2.337a3.6,3.6,0,0,1,2.562-3.105,3.519,3.519,0,0,0,2.562-2.956c0-5.4,6.822-5.9,8.23-.6a5.333,5.333,0,0,0,3.818,3.638,14.345,14.345,0,0,1,5.879,3.8c2.584,2.8,3.471,3.019,9.889,2.394,6.078-.592,7.134-.386,7.655,1.5.346,1.25,2.686,2.772,5.472,3.56,2.677.757,5.583,2.19,6.457,3.184,2.052,2.335,8.189,2.331,10.243-.005.877-1,3.414-1.814,5.638-1.814,3.982,0,4.089.155,7.118,10.351s3.04,10.411.7,14.209a17.45,17.45,0,0,1-4.082,4.828c-.941.535-2.831,3.046-4.2,5.58-1.493,2.763-4.993,6.124-8.741,8.395-6.435,3.9-13.089,10.114-13.089,12.227,0,.659-1.585,1.529-3.522,1.935-7.977,1.672-21.679,5.683-24.856,7.276C315.1,367.4,311.42,367.708,309.374,366.32Z" fill="#ece5e5"/>
            <path id="path1330" d="M424.049,355.758a35.868,35.868,0,0,0-9.672-1.721c-9.238-.164-11.171-5.269-3.47-9.162,2.632-1.33,4.988-3.419,5.236-4.642.684-3.371-4.685-8.048-9.29-8.093-6.184-.06-8.423-2.416-8.423-8.861v-5.611h-5.049c-2.776,0-5.4.544-5.84,1.209a4.108,4.108,0,0,1-3.093,1.21c-3.542,0-7.084-13.838-6.652-25.987.19-5.315.953-10.018,1.7-10.452.8-.464.99-2.215.472-4.244-.484-1.9-1.441-6.447-2.125-10.1-.877-4.685-2.182-7.378-4.418-9.114-4.04-3.136-4.058-5.4-.045-5.4,4.52,0,7.118-4.265,7.118-11.685,0-3.471.577-6.647,1.281-7.058,1.836-1.071,1.584-7.546-.32-8.251-.881-.325.284-.985,2.588-1.466s4.5-1.347,4.88-1.927,4.114-1.053,8.3-1.053c4.22,0,7.61-.538,7.61-1.209s2.345-1.209,5.21-1.209c4.628,0,5.12-.271,4.4-2.419-.567-1.688-.23-2.418,1.119-2.418a3.576,3.576,0,0,1,2.724,1.209c1.118,1.707,5.985,1.433,8.666-.487,1.244-.891,3.592-4,5.218-6.915,3.334-5.969,7.727-7.416,12.645-4.164a11.435,11.435,0,0,0,4.94,1.893c1.143,0,3.753,1.359,5.8,3.021s4.236,3.022,4.866,3.023.834,4.268.45,9.556c-.441,6.066-.191,10.029.683,10.854.982.928.761,1.943-.77,3.54s-2.148,4.418-2.148,9.711c0,6.461.433,7.825,3.2,10.1s3.2,3.635,3.2,10.143c0,6.656.433,7.951,3.789,11.342,4.059,4.1,11.582,16.413,11.582,18.953a3.382,3.382,0,0,0,1.748,2.506c.962.532,2.715,2.752,3.9,4.933,1.935,3.573,1.952,4.151.174,5.83-2.73,2.577-2.486,4.5,1.228,9.666,3.642,5.067,3.891,7.586,1.413,14.308-1.872,5.075-4.992,7.948-8.633,7.948-1.994,0-10.075,7.116-14.353,12.638-1.429,1.845-2.009,1.695-6.506-1.679-3.823-2.868-6.213-3.7-10.586-3.7-4.932,0-5.924.458-7.829,3.62-1.872,3.1-2.911,3.608-7.306,3.536A35.479,35.479,0,0,1,424.049,355.758Z" fill="#ece5e5"/>
            <path id="path1328" d="M270.1,315.35a6.164,6.164,0,0,0-5.177-2.519c-2.648,0-3.7-.721-4.291-2.934-1.361-5.119-5.247-7.344-12.828-7.344-5.687,0-7.235-.473-8.9-2.721-1.705-2.3-3.193-2.721-9.557-2.721-4.146,0-7.912.571-8.368,1.269-.5.769-2.025.054-3.858-1.813a9.7,9.7,0,0,0-6.855-3.083c-2.105,0-4.184-.544-4.62-1.209s-2.2-1.21-3.918-1.21-3.127-.461-3.127-1.024-1.153-2.279-2.562-3.813c-3.088-3.361-3.333-8.773-.5-10.995,1.135-.889,3.941-1.465,6.233-1.278,5.1.414,5.7-1.1,5.9-14.934.218-14.535.757-15.648,7.784-16.082,8.153-.5,12.507-4.724,10.375-10.056-2.054-5.137-.2-9.252,4.4-9.75,2.972-.321,3.656-1.036,3.978-4.153.269-2.615,1.346-4.178,3.522-5.114a4.629,4.629,0,0,0,3.154-4.094c.027-3.807,1.693-5.926,5.949-7.569,3.236-1.249,4.206-1.016,8.762,2.1,4.667,3.192,5.809,3.447,12.81,2.861,4.227-.353,9.632-.8,12.01-.995,4.617-.377,5.851.759,7.146,6.578a8.237,8.237,0,0,0,4.56,5.17c3.435,1.677,3.824,2.455,3.824,7.64,0,3.175.692,6.426,1.537,7.224.894.843,5.176,1.451,10.224,1.451,8.436,0,8.708.1,9.45,3.326a31.308,31.308,0,0,0,2.156,6.034c2.072,4.035-1.975,7.947-7.117,6.881-6.071-1.258-8.447,5.48-3.44,9.757a7.508,7.508,0,0,1,2.562,4.783,6.162,6.162,0,0,0,1.41,3.925c1.026.968.677,1.55-1.281,2.137-1.48.443-2.7,1.449-2.72,2.236s-1.155,2.79-2.533,4.453-2.518,3.939-2.533,5.058a3.506,3.506,0,0,1-2.591,2.8,3.6,3.6,0,0,0-2.562,3.1c0,1.992-.927,2.337-6.267,2.337-4.534,0-6.483.53-7.046,1.913-1.354,3.333-.844,6.6,1.144,7.324,2.457.89,2.52,5.274.076,5.274a3.465,3.465,0,0,1-2.638-1.209c-1.721-2.63-4.447-.989-5.71,3.437a21.739,21.739,0,0,1-3.814,7.356l-2.49,2.709Z" fill="#ece5e5"/>
            <path id="path1326" d="M356.163,300.14c-.874-.994-3.78-2.428-6.457-3.185-2.862-.809-5.124-2.3-5.491-3.627-.827-2.986-4.475-4.192-7.423-2.453-3.7,2.177-7.395,1.664-10.477-1.455a16.516,16.516,0,0,0-5.7-3.709,6.011,6.011,0,0,1-3.665-3.806,5.336,5.336,0,0,0-3.76-3.658c-3.43-.812-2.947-3.623.815-4.751,2.606-.78,3.43-5.9,1.163-7.22-.7-.411-1.281-1.991-1.281-3.511a7.608,7.608,0,0,0-2.532-4.927c-3.27-2.794-2.221-4.258,3.049-4.258,2.451,0,5.1-.924,6.329-2.212,2.244-2.34,2.9-9.282.985-10.4-.625-.365-1.516-2.573-1.98-4.909l-.844-4.245h-8.652c-5.022,0-9.3-.609-10.19-1.451-.845-.8-1.537-4.033-1.537-7.19,0-5.055-.415-5.926-3.493-7.318a9.3,9.3,0,0,1-4.633-5.205c-2.166-6.888-2.669-7.267-9.317-7.024-3.44.126-8.7.591-11.7,1.034-4.735.7-6.276.3-11.849-3.076-6.885-4.171-7.9-6.414-3.844-8.465,2.715-1.372,3.438-5.945,1.264-8-1.737-1.639.972-9.021,4.079-11.117,2.505-1.69,3.23-8.038,1.062-9.3-.705-.411-1.281-2.075-1.281-3.7,0-2.11.7-2.951,2.473-2.951a2.806,2.806,0,0,0,2.882-2.671,4.273,4.273,0,0,1,3.611-3.392c2.881-.647,3.2-1.32,3.2-6.69,0-5.932.035-5.982,5.411-7.746,4.4-1.443,6.213-1.5,9.7-.312a36.694,36.694,0,0,0,9.96,1.432c5.354-.029,5.806-.3,8.021-4.837,2.247-4.6,2.6-4.8,8.342-4.8,4.989,0,6.208-.457,7.26-2.721.854-1.837,2.573-2.841,5.294-3.09a11.5,11.5,0,0,0,6.283-2.721c1.555-1.622,3.932-2.351,7.663-2.351,3.085,0,6.051-.731,6.9-1.7.823-.936,4.281-1.888,7.685-2.116l6.189-.416.654,10.856c.522,8.649,1.112,11.108,2.9,12.093,4.525,2.487,9.568,7.867,9.568,10.207,0,6.114,7.711,13.4,14.182,13.4a6.222,6.222,0,0,1,4.736,2.419c1.1,1.668,2.987,2.418,6.072,2.418,3.813,0,4.472.41,4.472,2.781a6.593,6.593,0,0,0,1.5,4.2c1.144,1.08,1.11,2.526-.144,6.115-2.277,6.511-1.075,8.913,6.988,13.967,5.868,3.678,8.1,4.381,13.9,4.381,4.577,0,7.445.611,8.5,1.813a7.048,7.048,0,0,0,4.32,1.957c2.038.107,1.8.336-.931.907-2.616.547-4.506,2.265-6.639,6.035-3.282,5.8-7.615,9.418-8.91,7.439-.44-.672-2.838-1.222-5.328-1.222-3.45,0-4.687.575-5.2,2.418-.474,1.713-1.747,2.418-4.363,2.418-2.032,0-3.694.545-3.694,1.21s-3.39,1.209-7.61,1.209c-4.185,0-7.92.474-8.3,1.053s-2.431,1.382-4.559,1.784c-4.111.776-5.209,3.88-2.333,6.6,1.2,1.128,1.2,1.773,0,2.9-.845.8-1.537,4.214-1.537,7.591,0,7.245-2.639,11.514-7.118,11.514-4.662,0-4.445,6.78.333,10.376,2.742,2.064,3.5,3.71,3.641,7.9a48.278,48.278,0,0,0,.527,6.508c.553,1.91-.029,16.7-.748,19.046-.49,1.593-2.015,2.116-6.171,2.116-3.345,0-6.15.715-7.116,1.813C359.275,302.417,358.166,302.418,356.163,300.14Z" fill="#ece5e5"/>
            <path id="path1324" d="M179.575,288.949a84,84,0,0,1-2.337-11.5c-.655-5.692-.728-5.772-6.589-7.165-3.26-.775-5.222-1.631-4.359-1.9,2.649-.833,1.774-6.943-1.4-9.755-3.753-3.328-5.71-3.309-9.545.092-5.047,4.476-13.554,3.785-22.507-1.826-4.892-3.067-7.254-5.354-7.254-7.026,0-1.363-2.837-5.31-6.305-8.771s-6.714-7.832-7.214-9.714c-.865-3.255-1.176-3.385-6.352-2.652-4.989.706-5.507.528-6.215-2.132-.424-1.6-3.375-5.169-6.558-7.938-6.332-5.509-6.624-6.689-4.324-17.5,1.3-6.089,1.2-7.142-.817-9.248-1.887-1.969-2-2.7-.63-4.253,1.331-1.514,1.341-2.858.052-6.976a54.413,54.413,0,0,0-2.7-7.113,2.422,2.422,0,0,1,.631-3.368c.952-.746,2.11-3.269,2.575-5.608s1.7-4.562,2.743-4.941c2.682-.971,5.646-6.86,5.646-11.217,0-3.3.41-3.688,3.868-3.688,4.953,0,13.809-5.254,15.364-9.114.66-1.638,1.934-2.978,2.832-2.979,2.606,0,11.241-9.1,11.241-11.848a3.563,3.563,0,0,0-2.393-3.215,13.3,13.3,0,0,1-4.682-3.105c-2.219-2.314-2.195-2.388.791-2.392,5.366-.008,11.186-4.246,11.641-8.476.4-3.713.451-3.74,2.969-1.546,7.069,6.16,10.98,7.9,16.022,7.142,5.545-.837,8.138,1.109,4.669,3.5-3.339,2.3-2.714,8.63,1.085,10.979,4.023,2.489,4.089,5,.175,6.684-2.643,1.138-3.124,2.39-3.789,9.887-.824,9.275-.221,10.739,5.6,13.58,4.82,2.352,5.572,6.024,1.723,8.4-4.484,2.774-4.383,9.949.155,11.024a14.767,14.767,0,0,0,5.765.136c2.021-.5,2.541-.024,2.541,2.32,0,3.741,3.239,4.973,6.269,2.384,2.6-2.22,4.211-1.172,5.82,3.787.587,1.807,2.486,3.1,5.772,3.938,2.694.685,5.612,2.058,6.485,3.05,2.14,2.434,10.24,2.428,10.24-.008,0-2.576,2.254-2.246,4.14.6a6.2,6.2,0,0,0,5.166,2.419c2.518,0,3.891.8,4.669,2.72,2.137,5.276,5.935,7.351,11.825,6.462,3.509-.53,5.685-.332,6.276.571,1.214,1.855-1.442,8.614-4.132,10.514a7.825,7.825,0,0,0-2.562,4.831c-.317,2.6-1.216,3.438-4.2,3.921-4.707.762-7.085,6.684-4.89,12.174,1.215,3.038,1.015,3.657-1.729,5.354a10.062,10.062,0,0,1-7.314,1.173c-6.495-1.15-7.638,1.144-8.46,16.981-.391,7.536-1.087,14.056-1.547,14.488s-2.065.069-3.567-.809c-2.463-1.439-3.087-1.211-6.378,2.335-2.005,2.161-4.291,3.93-5.079,3.93-1.941,0-1.807,1.892.273,3.855a12.383,12.383,0,0,1,2.586,4.924c.485,1.822,1.446,3.313,2.138,3.313a1.237,1.237,0,0,1,1.256,1.209,1.3,1.3,0,0,1-1.372,1.209,6.477,6.477,0,0,0-3.294,1.814,9.036,9.036,0,0,1-5.382,1.814C181.671,294.693,181.046,293.994,179.575,288.949Z" fill="#ece5e5"/>
            <path id="path1322" d="M51.858,266.768c-.477-.728-3.1-1.122-5.84-.875-3.1.278-4.974-.063-4.974-.9,0-.743-2.237-1.985-4.972-2.758-6.632-1.876-8.252-3.838-6.584-7.977,2.306-5.726,1.559-9.668-2.534-13.37-2.114-1.912-3.827-4.054-3.807-4.761s1.789-3.462,3.931-6.122l3.9-4.837-.881-12.7c-.583-8.4-1.685-14.285-3.257-17.392-2.33-4.6-2.326-4.76.152-8.046,2.842-3.768,3.346-10.791.938-13.065-1.267-1.2-1.2-1.734.32-2.642a9.573,9.573,0,0,1,4.059-1.159c2.808-.024,7.458-5.661,7.458-9.04,0-1.457,1.439-3.925,3.2-5.485,2.9-2.57,3.5-2.681,6.476-1.179,2.94,1.485,3.874,1.35,9.05-1.3a38.885,38.885,0,0,0,7.813-5.077,7.107,7.107,0,0,1,4.248-2.116,5.853,5.853,0,0,0,3.8-1.814c.877-1,3.181-1.814,5.12-1.814A49.255,49.255,0,0,0,87,141.576c3.369-.636,4-1.306,4-4.232,0-2.234.665-3.477,1.861-3.477,1.474,0,1.726,1.323,1.213,6.349-1.221,11.953-1.879,14.1-5.048,16.45a11.893,11.893,0,0,0-3.95,6.071c-.434,2.049-1.584,4.348-2.556,5.109-2.161,1.693-2.306,6.142-.264,8.07.871.822,1.451,4.71,1.378,9.239-.081,5.034.462,8.28,1.525,9.113,1.2.938,1.362,2.7.6,6.42a65.2,65.2,0,0,0-1.107,10.242c-.05,4.544.589,5.675,5.73,10.149,3.182,2.769,6.14,6.366,6.573,7.994.707,2.658,1.35,2.917,6.316,2.544,6.68-.5,7.735,1.429,4.729,8.652-2.114,5.08-4.19,5.385-4.19.614,0-1.584-.6-3.229-1.327-3.655-2.516-1.467-11.9.914-14.948,3.794-1.68,1.586-3.532,2.884-4.114,2.884s-1.437,2.231-1.9,4.959c-.589,3.476-1.579,5.141-3.311,5.569-1.382.341-3.1,2.419-3.906,4.715-1.725,4.933-5.3,5.454-7.408,1.081-.8-1.662-2.221-3.023-3.152-3.023a5.279,5.279,0,0,0-4.767,4.892c0,1.873-3.759,5.991-5.469,5.991C53.076,268.09,52.334,267.495,51.858,266.768Z" fill="#ece5e5"/>
            <path id="path1320" d="M240.872,199.011c0-.915-2.2-1.163-6.7-.755-7.1.644-8.652-.192-11.245-6.044-.869-1.961-2.275-2.721-5.035-2.721-2.518,0-4.3-.828-5.2-2.418-1.707-3.012-10.247-3.516-10.247-.6,0,2.518-3.01,2.269-5.631-.466a12.375,12.375,0,0,0-5.684-2.94c-2.4-.453-4.181-2.011-5.678-4.975-2.294-4.54-6.54-5.8-9.651-2.864-1.2,1.128-1.537.69-1.537-1.972,0-3.18-.3-3.381-4.163-2.823-7.9,1.142-9.937-1.942-3.982-6.037,4.917-3.381,3.524-9.674-3.035-13.707-4.6-2.83-4.723-3.091-4.356-9.466.3-5.245,1-7.016,3.473-8.855,4.2-3.121,4.152-8.447-.106-11.081-3.594-2.223-4.175-4.942-1.281-5.99a2.857,2.857,0,0,0,1.921-2.321c0-2.078,4.742-11.387,6.248-12.266.629-.366,2.966-.067,5.192.666,3.383,1.113,4.46.98,6.552-.807,1.377-1.176,2.5-2.812,2.5-3.636,0-1.687,2.822-2.965,6.549-2.965a3.649,3.649,0,0,0,3.235-1.814c1.08-2.657,8.464-2.342,10.3.439,1.12,1.693,3.745,2.463,10.564,3.1,7.743.72,9.589,1.359,12.588,4.354,2.873,2.871,5.033,3.684,11.84,4.461l8.327.95.4,4.567c.429,4.9,3.428,7.341,16.257,13.225,5.04,2.311,5.76,3.125,5.76,6.5,0,2.546.764,4.153,2.242,4.717,2.014.768,1.961.957-.52,1.862-3.351,1.222-5.227,7.708-2.972,10.273,1.56,1.775,1.359,1.928-4.834,3.671-.881.248-1.6,1.556-1.6,2.907a2.181,2.181,0,0,1-2.4,2.456c-3.495,0-4.751,8.107-1.741,11.245,2.08,2.17,2.045,2.4-.679,4.482-1.579,1.207-2.871,2.788-2.871,3.512a1.3,1.3,0,0,1-1.281,1.318c-1.755,0-1.626,10.074.151,11.751,1.055,1,.718,1.772-1.281,2.951a5.717,5.717,0,0,0-2.713,4.289,4.885,4.885,0,0,1-2.478,3.942C242.852,200.754,240.872,200.711,240.872,199.011Z" fill="#ece5e5"/>
            <path id="path1318" d="M435.577,196.142c-1.057-1.2-3.925-1.814-8.5-1.814-5.789,0-8.031-.7-13.843-4.347-3.814-2.39-7.262-5.15-7.661-6.133-.835-2.053,1.314-6.449,3.152-6.449,1.988,0,1.377-2.784-1.326-6.046a11.277,11.277,0,0,1-2.533-5.744c-.029-2.749-.643-3.057-6.433-3.23-2.312-.068-3.1-.684-2.826-2.211.3-1.7-.562-2.116-4.4-2.116-8.036,0-15.827-6.6-15.827-13.4,0-2.34-5.043-7.72-9.568-10.208-1.795-.987-2.383-3.458-2.914-12.261l-.666-11.025,5.286-.843c2.908-.464,5.571-1.277,5.918-1.808s3.3-1.343,6.573-1.805c6.09-.862,7.473-1.851,15.838-11.323,2.45-2.774,5.08-5.044,5.845-5.044,2.428,0,8.658-7.053,10.4-11.774,2.369-6.423,2.139-8.243-1.309-10.376-2.224-1.376-3.2-3.344-3.69-7.43-.452-3.786-1.617-6.339-3.656-8.008l-2.992-2.45,5.89-5.073c3.24-2.79,6.229-6.025,6.642-7.189,1.07-3.012,5.009-2.617,9.037.907,1.9,1.663,4.026,3.023,4.724,3.023s2.506,1.088,4.018,2.418,3.705,2.418,4.872,2.418c4.959,0,10.424,11.251,9.3,19.15-.448,3.149-.21,5.034.635,5.034,2.265,0,4.25,7.818,3.344,13.17-.629,3.715-.334,5.575,1.13,7.115,1.09,1.147,2.4,4.2,2.907,6.789a36.214,36.214,0,0,0,3.936,9.673c1.656,2.734,3.017,6.079,3.026,7.435s1.187,4.621,2.618,7.256c3.082,5.67,7.1,20.082,8.354,30,1.148,9.034-.955,15.541-5.641,17.456-6.514,2.662-12.014,6.164-14.049,8.946a42.107,42.107,0,0,1-3.7,4.4,6.281,6.281,0,0,0-1.653,3.93c0,1.283-.47,2.332-1.044,2.332s-2.006,1.9-3.182,4.233C439.252,198.371,437.984,198.88,435.577,196.142Z" fill="#ece5e5"/>
            <path id="path1316" d="M24.391,169.425c0-.662-4.016-4.988-8.925-9.613s-8.943-9.171-8.967-10.1,2.552-4.307,5.722-7.506,5.764-6.419,5.764-7.155,1.534-4.294,3.409-7.908c3.023-5.827,3.247-7.085,1.984-11.109a79.381,79.381,0,0,1-2.233-9.98c-.445-2.992-1.222-8.162-1.728-11.487A31.965,31.965,0,0,0,16.972,85.9c-.945-1.623-1.22-4.735-.723-8.162.757-5.215,1.037-5.542,4.793-5.592a34.448,34.448,0,0,0,9.113-1.9c2.818-1.016,7.718-2.633,10.888-3.592a40.2,40.2,0,0,0,8.967-3.936c3.628-2.483,10.469-4.418,24.17-6.837,5.863-1.035,10.5-2.612,12.252-4.161,1.993-1.767,4.516-2.494,8.658-2.494,10.543,0,19.616-5.565,25.238-15.481,1.555-2.743,7.643-6.285,10.8-6.285,2.473,0,4.419,5.223,5.03,13.506.46,6.231.235,6.972-2.473,8.136-3.7,1.59-3.976,6.438-.558,9.664,1.9,1.8,2.281,3.45,1.769,7.74-.558,4.671-.261,5.653,2.063,6.827,3.05,1.541,3.815,7.332.968,7.332-1.232,0-1.949,2.39-2.437,8.123-.38,4.468-1.323,8.322-2.1,8.565s-1.407,1.99-1.407,3.882c0,4.439-5.251,8.451-11.06,8.451-6.146,0-5.805,3.8.742,8.277l5.053,3.455-4.787,4.413c-2.633,2.426-5.5,4.412-6.365,4.412s-2.118,1.338-2.777,2.973c-1.453,3.608-10.482,9.49-13.675,8.91-1.866-.339-2.23-1.4-1.913-5.547l.392-5.127H93.02c-4.192,0-4.581.295-4.581,3.477,0,2.926-.634,3.6-4,4.232a49.384,49.384,0,0,1-7.529.756c-1.939,0-4.244.816-5.121,1.813a6,6,0,0,1-3.927,1.814,6,6,0,0,0-4.028,2.116c-3.15,3.932-9.316,6.122-15.41,5.474-5.231-.557-5.95-.3-8.469,3.04-1.514,2.007-2.752,4.444-2.752,5.416,0,2.7-5.029,8.138-7.522,8.138a6.294,6.294,0,0,0-3.75,1.452C25.083,169.975,24.391,170.086,24.391,169.425Z" fill="#ece5e5"/>
            <path id="path1314" d="M288.312,134.943a21.533,21.533,0,0,0-7.686-.831c-5.464.435-9.008-2.394-9.017-7.2-.005-2.953-1.223-3.912-10.888-8.572-10.875-5.243-10.882-5.249-10.882-10.014,0-4.7-.243-4.961-5.985-6.547-2.674-.738-.283-5.159,3.614-6.683a6.579,6.579,0,0,0,4.521-4.936c.468-2.207,1.535-3.454,2.955-3.454,3.136,0,11.547-7.816,11.547-10.73,0-2.816-1.479-3.877-6.85-4.914-2.851-.55-4.127-1.647-4.838-4.154a10.167,10.167,0,0,0-2.944-4.8c-2.046-1.443-1.5-6.838.691-6.838.623,0,1.132-2.177,1.132-4.837,0-4.332.329-4.837,3.15-4.837,4.786,0,12.154-3.9,12.19-6.452.028-1.979.9-2.153,8.037-1.607,4.4.337,11.465,1.145,15.692,1.8,24.959,3.841,31.346,4.383,50.6,4.293,11.624-.054,26.611-.724,33.3-1.488s16.493-1.69,21.777-2.056l9.607-.666-4.8,4c-5.653,4.7-6.094,8.11-1.6,12.351,2.354,2.223,3.2,4.311,3.2,7.887,0,3.784.675,5.281,3.038,6.743,2.8,1.734,2.92,2.2,1.514,6.065-1.744,4.787-5.95,9.374-11.64,12.694a35.627,35.627,0,0,0-8.082,7.752c-3.2,4.2-5.393,5.763-9.543,6.781-2.964.726-9.424,2.711-14.356,4.411a82.023,82.023,0,0,1-14.993,3.661c-3.315.315-6.7,1.337-7.523,2.272-.853.971-3.819,1.7-6.9,1.7-3.782,0-6.106.728-7.727,2.419a8,8,0,0,1-4.766,2.418c-3.551,0-7.4,2.225-7.4,4.275,0,1.284-1.532,1.771-5.566,1.771-5.888,0-8.757,1.922-10.381,6.953-.679,2.1-1.8,2.7-4.955,2.644A26.154,26.154,0,0,1,288.312,134.943Z" fill="#ece5e5"/>
            <path id="path1312" d="M146.722,104.532c-8.519-5.908-9.169-7-8.609-14.5.37-4.938,1.043-6.953,2.323-6.953s1.8-1.564,1.8-5.4c0-4.141-.59-5.7-2.533-6.679-2.14-1.081-2.414-2.1-1.764-6.578.644-4.44.328-5.654-1.95-7.5-3.516-2.841-3.427-3.826.495-5.513,3.153-1.356,3.2-1.571,2.412-11.159-.441-5.377-1.574-10.945-2.517-12.373-1.584-2.4-1.4-2.711,2.391-4.091,9.708-3.534,13.65-5.493,13.681-6.8.018-.767,2.771-1.69,6.117-2.052,12.134-1.31,3.241-1.632,7.964-4.582,4.706-2.94,23.48-4.479,39.208-3.623,14.986.816,26.918,15.213,26.2,17.347-.366,1.088.063,5.748-3.321,3.736s-14.685-15.609-16.8-14.153c-3.837,2.648,6.57,11.627,6.57,14.148,0,3.635.367,10.8,3.668,13.62,3.929,3.363,7.161,1.053,15.953.678,12.885-.549,16.051,2.707,11.188,11.507-2.636,4.773-2.415,9.246.544,10.99a7.193,7.193,0,0,1,2.882,4.778c.344,2.788,1.219,3.478,5.457,4.3a24.508,24.508,0,0,1,5.641,1.543c1.219,1.151-8.234,9.031-10.849,9.043-1.964.009-2.925.974-3.454,3.467-.5,2.368-1.952,3.931-4.612,4.971-2.9,1.134-4.085,2.549-4.692,5.6-.733,3.685-1.145,4.014-4.2,3.337a18.7,18.7,0,0,1-6.761-3.714c-3.492-3.062-10.331-5.11-17.238-5.16a9.514,9.514,0,0,1-6.283-2.447c-2.918-3.044-14.023-3.486-15.194-.6-.406,1-2.052,1.822-3.66,1.832-3.46.022-4.981.948-6.92,4.214-1.129,1.9-2.768,2.418-7.685,2.418-5.708,0-6.415.322-8.147,3.706-1.5,2.93-2.707,3.7-5.764,3.694a18.985,18.985,0,0,0-5.789.793C151.381,106.854,148.934,106.065,146.722,104.532Z" fill="#ece5e5"/>
        </g>
    </g>
</svg>